<svg width="145" height="42" viewBox="0 0 145 42" fill="none" xmlns="http://www.w3.org/2000/svg">
<path d="M73.8978 32.52L69.743 23.976C72.3637 22.76 73.5782 20.232 73.5782 17.096C73.5782 13.224 71.7565 10.248 67.6336 9.608C67.0263 9.512 66.1634 9.48 65.716 9.48H56V32.52H60.3466V24.712H65.2046L68.9759 32.52H73.8978ZM60.3466 13.544H65.5242C65.9717 13.544 66.5469 13.576 66.9944 13.704C68.7522 14.184 69.1997 15.848 69.1997 17.096C69.1997 18.344 68.7522 20.008 66.9944 20.488C66.5469 20.616 65.9717 20.648 65.5242 20.648H60.3466V13.544Z" fill="#0A0A0B"/>
<path d="M91.1859 17.896C89.9714 15.592 87.4785 14.76 84.4423 14.76C80.2874 14.76 77.9224 16.744 77.0594 19.592L80.9906 20.84C81.5339 19.272 83.1639 18.728 84.4423 18.728C86.4877 18.728 87.4146 19.464 87.6064 21.064C84.3784 21.544 81.8854 21.928 80.2235 22.536C77.4429 23.56 76.4522 25.352 76.4522 27.752C76.4522 30.632 78.4976 33 82.2051 33C84.8578 33 86.5517 32.232 88.0858 30.408V32.52H91.8891V21.96C91.8891 20.392 91.8571 19.176 91.1859 17.896ZM87.127 27.272C86.7754 28.008 85.5289 29.576 83.1319 29.576C81.6298 29.576 80.7029 28.872 80.7029 27.688C80.7029 26.824 81.2143 26.216 82.4927 25.704C83.4835 25.352 84.666 25.096 87.5744 24.616C87.5424 25.448 87.4785 26.536 87.127 27.272Z" fill="#0A0A0B"/>
<path d="M107.166 9.48V15.816C106.08 15.144 104.801 14.76 103.267 14.76C98.3134 14.76 95.0854 18.6 95.0854 23.88C95.0854 29.064 98.2814 33 103.043 33C104.961 33 106.495 32.456 107.71 31.528V32.52H111.545V9.48H107.166ZM103.747 29.128C100.934 29.128 99.6877 26.792 99.6877 23.88C99.6877 21 100.998 18.632 103.906 18.632C106.623 18.632 107.71 20.744 107.71 23.88C107.71 27.016 106.655 29.128 103.747 29.128Z" fill="#0A0A0B"/>
<path d="M116.339 12.84H120.686V9H116.339V12.84ZM116.339 32.52H120.686V15.24H116.339V32.52Z" fill="#0A0A0B"/>
<path d="M133.243 33C138.42 33 142 29.256 142 23.88C142 18.536 138.452 14.76 133.243 14.76C128.129 14.76 124.518 18.472 124.518 23.88C124.518 29.224 128.033 33 133.243 33ZM133.243 28.936C130.526 28.936 129.12 26.984 129.12 23.88C129.12 20.872 130.398 18.824 133.243 18.824C135.991 18.824 137.398 20.808 137.398 23.88C137.398 26.856 136.023 28.936 133.243 28.936Z" fill="#0A0A0B"/>
<circle cx="21" cy="21" r="21" fill="#1154FF"/>
<path fill-rule="evenodd" clip-rule="evenodd" d="M21 8C22.6364 8 24.124 8.70148 25.2017 9.83705C25.843 10.5108 26.3388 11.3338 26.6364 12.254H20.2331V14.3377H26.9504V15.9004H20.2331V17.984H26.9504V19.6335C26.9504 21.3525 26.2826 22.9152 25.2017 24.0473C24.124 25.1794 22.6364 25.8843 21 25.8843C19.3636 25.8843 17.876 25.1828 16.7983 24.0473C15.7207 22.9152 15.0496 21.3525 15.0496 19.6335V17.984H18.2066V15.9004H15.0496V14.3377H18.2066V12.254H15.3636C15.6612 11.3338 16.157 10.5108 16.7983 9.83705C17.876 8.70148 19.3636 8 21 8ZM29.0165 19.6335C29.0165 21.9602 28.1207 24.0646 26.6694 25.5892C25.2182 27.1137 23.2149 28.0548 21 28.0548C18.7851 28.0548 16.7818 27.1137 15.3306 25.5892C13.8793 24.0646 12.9835 21.9602 12.9835 19.6335V14.9454H11V19.6335C11 22.5332 12.1207 25.162 13.9289 27.0616C15.519 28.7319 17.6413 29.8432 20.0083 30.0863V31.9164H18.3983V34H23.6017V31.9164H21.9917V30.0863C24.3587 29.8432 26.481 28.7319 28.0711 27.0616C29.8793 25.162 31 22.5332 31 19.6335V14.9454H29.0165V19.6335Z" fill="white"/>
</svg>
