<svg width="1208" height="314" viewBox="0 0 1208 314" fill="none" xmlns="http://www.w3.org/2000/svg">
<g clip-path="url(#clip0)">
<path d="M821.393 146.048V167.953V198.253H810.845V167.953V146.048V115.752H821.393V146.048Z" fill="white" fill-opacity="0.04"/>
<path d="M888.279 146.047V167.953V272.657H877.73V167.953V146.047V41.3481H888.279V146.047Z" fill="white" fill-opacity="0.04"/>
<path d="M754.504 146.048V167.953V198.253H743.96V167.953V146.048V115.752H754.504V146.048Z" fill="white" fill-opacity="0.04"/>
<path d="M732.212 146.047V167.953V173.043H721.663V167.953V146.047V140.957H732.212V146.047Z" fill="white" fill-opacity="0.04"/>
<path d="M776.801 146.047V167.953V185.795H766.252V167.953V146.047V128.21H776.801V146.047Z" fill="white" fill-opacity="0.04"/>
<path d="M910.576 146.047V167.952V220.471H900.027V167.952V146.047V93.5288H910.576V146.047Z" fill="white" fill-opacity="0.04"/>
<path d="M1044.35 146.047V167.952V195.306H1033.8V167.952V146.047V118.694H1044.35V146.047Z" fill="white" fill-opacity="0.04"/>
<path d="M1066.64 146.047V167.953V200.118H1056.09V167.953V146.047V113.882H1066.64V146.047Z" fill="white" fill-opacity="0.04"/>
<path d="M1111.23 146.047V167.953V185.795H1100.68V167.953V146.047V128.21H1111.23V146.047Z" fill="white" fill-opacity="0.04"/>
<path d="M1088.94 146.047V167.953V182.28H1078.39V167.953V146.047V131.72H1088.94V146.047Z" fill="white" fill-opacity="0.04"/>
<path d="M1022.05 146.047V167.953V214.259H1011.51V167.953V146.047V99.7456H1022.05V146.047Z" fill="white" fill-opacity="0.04"/>
<path d="M999.758 146.047V167.952V259.929H989.209V167.952V146.047V54.0698H999.758V146.047Z" fill="white" fill-opacity="0.04"/>
<path d="M932.868 146.047V167.952V249.459H922.324V167.952V146.047V64.5405H932.868V146.047Z" fill="white" fill-opacity="0.04"/>
<path d="M955.164 146.048V167.953V229.189H944.616V167.953V146.048V84.8159H955.164V146.048Z" fill="white" fill-opacity="0.04"/>
<path d="M709.915 146.047V167.953V193.475H699.366V167.953V146.047V120.525H709.915V146.047Z" fill="white" fill-opacity="0.04"/>
<path d="M977.461 146.048V167.953V280H966.913V167.953V146.048V34.001H977.461V146.048Z" fill="white" fill-opacity="0.04"/>
<path d="M865.982 146.048V167.953V247.208H855.438V167.953V146.048V66.7925H865.982V146.048Z" fill="white" fill-opacity="0.04"/>
<path d="M553.843 146.048V167.953V211.631H543.294V167.953V146.048V102.375H553.843V146.048Z" fill="white" fill-opacity="0.04"/>
<path d="M531.546 146.047V167.952V269.406H521.002V167.952V146.047V44.5933H531.546V146.047Z" fill="white" fill-opacity="0.04"/>
<path d="M598.432 146.048V167.953V184.875H587.888V167.953V146.048V129.13H598.432V146.048Z" fill="white" fill-opacity="0.04"/>
<path d="M576.14 146.048V167.953V191.199H565.591V167.953V146.048V122.801H576.14V146.048Z" fill="white" fill-opacity="0.04"/>
<path d="M397.774 146.047V167.953V185.795H387.23V167.953V146.047V128.21H397.774V146.047Z" fill="white" fill-opacity="0.04"/>
<path d="M620.728 146.048V167.953V205.86H610.18V167.953V146.048V108.141H620.728V146.048Z" fill="white" fill-opacity="0.04"/>
<path d="M420.072 146.048V167.953V205.86H409.523V167.953V146.048V108.141H420.072V146.048Z" fill="white" fill-opacity="0.04"/>
<path d="M342.638 146.047V167.953V185.795H353.186V167.953V146.047V128.21H342.638V146.047Z" fill="white" fill-opacity="0.04"/>
<path d="M320.341 146.048V167.953V205.86H330.89V167.953V146.048V108.141H320.341V146.048Z" fill="white" fill-opacity="0.04"/>
<path d="M464.66 146.047V167.953V221.891H454.116V167.953V146.047V92.1094H464.66V146.047Z" fill="white" fill-opacity="0.04"/>
<path d="M442.368 146.048V167.953V195.135H431.819V167.953V146.048V118.866H442.368V146.048Z" fill="white" fill-opacity="0.04"/>
<path d="M486.957 146.047V167.952V269.406H476.408V167.952V146.047V44.5933H486.957V146.047Z" fill="white" fill-opacity="0.04"/>
<path d="M509.254 146.047V167.953V314H498.705V167.953V146.047V0H509.254V146.047Z" fill="white" fill-opacity="0.04"/>
<path d="M687.618 146.047V167.953V185.795H677.069V167.953V146.047V128.21H687.618V146.047Z" fill="white" fill-opacity="0.04"/>
<path d="M643.024 146.047V167.953V185.795H632.476V167.953V146.047V128.21H643.024V146.047Z" fill="white" fill-opacity="0.04"/>
<path d="M1133.53 146.047H1122.98V167.953H1133.53V146.047Z" fill="white" fill-opacity="0.04"/>
<path d="M298.049 146.047V167.952V220.471H308.593V167.952V146.047V93.5288H298.049V146.047Z" fill="white" fill-opacity="0.04"/>
<path d="M164.278 146.047V167.952V195.306H174.822V167.952V146.047V118.694H164.278V146.047Z" fill="white" fill-opacity="0.04"/>
<path d="M141.981 146.047V167.953V200.118H152.53V167.953V146.047V113.882H141.981V146.047Z" fill="white" fill-opacity="0.04"/>
<path d="M97.3926 146.047V167.953V185.795H107.936V167.953V146.047V128.21H97.3926V146.047Z" fill="white" fill-opacity="0.04"/>
<path d="M119.685 146.047V167.953V182.28H130.233V167.953V146.047V131.72H119.685V146.047Z" fill="white" fill-opacity="0.04"/>
<path d="M186.569 146.047V167.953V214.259H197.118V167.953V146.047V99.7456H186.569V146.047Z" fill="white" fill-opacity="0.04"/>
<path d="M208.866 146.047V167.952V259.929H219.415V167.952V146.047V54.0698H208.866V146.047Z" fill="white" fill-opacity="0.04"/>
<path d="M275.752 146.047V167.952V249.459H286.301V167.952V146.047V64.5405H275.752V146.047Z" fill="white" fill-opacity="0.04"/>
<path d="M253.455 146.048V167.953V229.189H264.004V167.953V146.048V84.8159H253.455V146.048Z" fill="white" fill-opacity="0.04"/>
<path d="M231.163 146.048V167.953V280H241.707V167.953V146.048V34.001H231.163V146.048Z" fill="white" fill-opacity="0.04"/>
<path d="M85.6444 146.047H75.0957V167.953H85.6444V146.047Z" fill="white" fill-opacity="0.04"/>
<path d="M799.098 146.047H788.549V167.953H799.098V146.047Z" fill="white" fill-opacity="0.04"/>
<path d="M375.483 146.047H364.935V167.953H375.483V146.047Z" fill="white" fill-opacity="0.04"/>
<path d="M665.321 146.047H654.772V167.953H665.321V146.047Z" fill="white" fill-opacity="0.04"/>
<path d="M843.69 146.047H833.142V167.953H843.69V146.047Z" fill="white" fill-opacity="0.04"/>
<path d="M42.1366 146.047V167.953V185.795H31.5879V167.953V146.047V128.21H42.1366V146.047Z" fill="white" fill-opacity="0.06"/>
<path d="M19.8397 146.047V167.953V182.28H9.2959V167.953V146.047V131.72H19.8397V146.047Z" fill="white" fill-opacity="0.06"/>
<path d="M64.4325 146.047H53.8838V167.953H64.4325V146.047Z" fill="white" fill-opacity="0.06"/>
<path d="M1166.49 146.047V167.953V185.795H1177.03V167.953V146.047V128.21H1166.49V146.047Z" fill="white" fill-opacity="0.06"/>
<path d="M1188.78 146.047V167.953V182.28H1199.33V167.953V146.047V131.72H1188.78V146.047Z" fill="white" fill-opacity="0.06"/>
<path d="M1154.74 146.047H1144.19V167.953H1154.74V146.047Z" fill="white" fill-opacity="0.06"/>
</g>
<defs>
<clipPath id="clip0">
<rect width="1208" height="314" fill="white"/>
</clipPath>
</defs>
</svg>
