<svg width="917" height="883" viewBox="0 0 917 883" fill="none" xmlns="http://www.w3.org/2000/svg">
<path fill-rule="evenodd" clip-rule="evenodd" d="M113.338 469.572C97.9049 370.817 121.114 269.532 186.787 194.195C252.948 118.299 350.793 73.3496 451.09 82.1215C547.376 90.5425 623.865 157.782 678.924 237.237C732.575 314.66 760.284 406.883 739.858 498.837C717.881 597.772 660.938 689.212 569.041 731.908C473.385 776.351 360.03 770.408 268.613 717.781C179.636 666.559 129.193 571.019 113.338 469.572Z" stroke="#E9EAEE"/>
<path fill-rule="evenodd" clip-rule="evenodd" d="M228.577 626.564C161.362 567.885 119.184 485.225 120.996 395.87C122.822 305.85 164.114 218.761 237.896 167.014C308.728 117.336 399.722 119.3 483.031 141.959C564.211 164.038 636.094 211.18 674.828 285.853C716.503 366.195 729.91 461.542 691.403 543.665C651.32 629.148 570.209 690.348 477.363 706.978C386.995 723.164 297.625 686.842 228.577 626.564Z" stroke="#E9EAEE"/>
<path fill-rule="evenodd" clip-rule="evenodd" d="M366.323 765.634C230.596 716.021 142.077 584.425 147.76 439.897C153.373 297.161 254.143 178.767 390.999 138.103C532.031 96.1978 690.014 132.573 772.841 254.167C856.84 377.484 838.262 541.475 745.372 658.347C654.992 772.06 502.63 815.459 366.323 765.634Z" stroke="#E9EAEE"/>
</svg>
