<svg width="713" height="677" viewBox="0 0 713 677" fill="none" xmlns="http://www.w3.org/2000/svg">
<path fill-rule="evenodd" clip-rule="evenodd" d="M325.698 36.9697C418.896 38.7875 508.161 76.4987 566.716 149.001C625.707 222.042 651.144 319.166 626.845 409.844C603.518 496.896 529.377 556.245 447.487 593.938C367.692 630.668 278.505 641.179 197.36 607.534C110.055 571.335 35.2954 504.242 10.9643 412.944C-14.362 317.912 9.45318 214.786 72.5911 139.363C134.044 65.9526 229.959 35.1023 325.698 36.9697Z" stroke="#E9EAEE"/>
<path fill-rule="evenodd" clip-rule="evenodd" d="M314.827 18.6956C404.035 20.441 489.477 56.6505 545.526 126.265C601.991 196.398 626.339 289.655 603.081 376.722C580.752 460.307 509.785 517.292 431.402 553.485C355.022 588.752 269.654 598.845 191.983 566.54C108.416 531.782 36.8573 467.361 13.5679 379.698C-10.6741 288.45 12.1215 189.431 72.5562 117.011C131.378 46.5244 223.187 16.9026 314.827 18.6956Z" stroke="#E9EAEE"/>
<path fill-rule="evenodd" clip-rule="evenodd" d="M380.591 1.00032C525.102 1.20012 653.29 94.5838 697.382 232.339C740.926 368.388 686.726 514.107 572.032 599.126C453.837 686.74 292.94 706.592 173.521 620.659C52.4106 533.508 13.7798 373.053 61.0957 231.46C107.133 93.6923 235.463 0.799679 380.591 1.00032Z" stroke="#E9EAEE"/>
</svg>
