<svg width="178" height="37" viewBox="0 0 178 37" fill="none" xmlns="http://www.w3.org/2000/svg">
<path d="M47.7941 22.1517C45.5906 21.6182 44.9807 21.3416 44.9807 20.4524C44.9807 19.5632 45.4922 19.1877 46.9481 19.1877C47.5473 19.1914 48.139 19.3218 48.6847 19.5703C49.2305 19.8188 49.718 20.18 50.1156 20.6302L52.083 18.6542C51.4479 17.9541 50.6727 17.3967 49.8081 17.0187C48.9435 16.6407 48.0091 16.4506 47.0662 16.4608C44.3118 16.4608 42.069 18.0219 42.069 20.5709C42.069 23.12 43.8593 24.1673 46.4366 24.7799C49.0139 25.3924 49.5647 25.7876 49.5647 26.7559C49.5647 27.7241 48.7778 28.2774 47.1252 28.2774C46.4459 28.292 45.7719 28.1542 45.1525 27.8738C44.533 27.5935 43.9837 27.1778 43.5445 26.6571L41.5771 28.475C42.226 29.302 43.0635 29.9599 44.0189 30.3933C44.9743 30.8266 46.0195 31.0227 47.0662 30.9648C50.8829 30.9648 52.5552 29.1666 52.5552 26.4792C52.4765 23.4362 50.0172 22.6655 47.7941 22.1517V22.1517ZM60.6805 16.4608C56.8638 16.4608 54.6013 19.4248 54.6013 23.7128C54.6013 28.0008 56.8638 30.9648 60.6805 30.9648C64.4972 30.9648 66.74 28.0008 66.74 23.7128C66.74 19.4248 64.5169 16.4608 60.6805 16.4608ZM60.6805 28.1786C58.4377 28.1786 57.4933 26.2026 57.4933 23.7128C57.4933 21.223 58.4377 19.247 60.6805 19.247C62.9233 19.247 63.8873 21.223 63.8873 23.7128C63.8873 26.2026 62.943 28.1786 60.6805 28.1786ZM78.0722 24.5823C78.0722 26.8349 76.9705 28.2182 75.1998 28.2182C73.4292 28.2182 72.3274 26.7954 72.3274 24.5427V16.6386H69.5337V24.5427C69.5337 28.6331 71.8159 30.9253 75.1998 30.9253C78.5837 30.9253 80.8659 28.5738 80.8659 24.5032V16.5991H78.0722V24.5823ZM92.9457 22.626V25.7086C92.7686 25.3332 92.3161 24.6415 91.9816 24.108L87.0041 16.6782H84.4465V30.7475H87.2206V24.5625V21.4799C87.3976 21.8356 87.8501 22.547 88.1846 23.0805L93.3391 30.7475H95.8377V16.6782H92.9457V22.626ZM103.688 16.6782H99.32V30.7475H103.491C104.437 30.8223 105.388 30.6929 106.28 30.3681C107.172 30.0432 107.984 29.5304 108.662 28.864C109.341 28.1977 109.869 27.3932 110.213 26.5048C110.556 25.6163 110.706 24.6643 110.652 23.7128C110.652 18.5751 107.701 16.6782 103.688 16.6782V16.6782ZM103.491 28.0205H102.153V19.4051H103.629C106.599 19.4051 107.819 20.8476 107.819 23.7128C107.875 24.2958 107.801 24.884 107.602 25.4348C107.404 25.9856 107.086 26.4852 106.672 26.8974C106.258 27.3097 105.757 27.6243 105.207 27.8186C104.657 28.0128 104.071 28.0818 103.491 28.0205V28.0205ZM119.309 19.247C119.842 19.2186 120.372 19.3499 120.83 19.6243C121.289 19.8987 121.657 20.3038 121.886 20.7883L124.483 19.5829C124.042 18.6015 123.316 17.7775 122.399 17.22C121.482 16.6624 120.418 16.3977 119.348 16.4608C115.708 16.4608 113.131 19.4248 113.131 23.7128C113.131 28.0008 115.59 30.9648 119.25 30.9648C120.335 31.027 121.413 30.7558 122.34 30.1875C123.268 29.6192 124.002 28.7807 124.444 27.7834L122.083 26.3804C121.851 26.919 121.465 27.3769 120.975 27.6967C120.486 28.0166 119.913 28.1842 119.328 28.1786C117.243 28.1786 116.023 26.2026 116.023 23.7128C116.023 21.223 117.223 19.247 119.309 19.247V19.247ZM129.696 16.6782H126.903V30.7475H135.323V27.981H129.696V16.6782V16.6782ZM142.701 16.4608C138.884 16.4608 136.622 19.4248 136.622 23.7128C136.622 28.0008 138.884 30.9648 142.701 30.9648C146.518 30.9648 148.78 28.0008 148.78 23.7128C148.78 19.4248 146.518 16.4608 142.701 16.4608ZM142.701 28.1786C140.438 28.1786 139.494 26.2026 139.494 23.7128C139.494 21.223 140.438 19.247 142.701 19.247C144.963 19.247 145.888 21.223 145.888 23.7128C145.888 26.2026 144.963 28.1786 142.701 28.1786ZM160.073 24.5823C160.073 26.8349 158.991 28.2182 157.201 28.2182C155.41 28.2182 154.348 26.7954 154.348 24.5427V16.6386H151.534V24.5427C151.534 28.6331 153.817 30.9253 157.201 30.9253C160.584 30.9253 162.886 28.5738 162.886 24.5032V16.5991H160.073V24.5823ZM170.756 16.6782H166.388V30.7475H170.559C171.505 30.8223 172.456 30.6929 173.348 30.3681C174.24 30.0432 175.052 29.5304 175.731 28.864C176.409 28.1977 176.938 27.3932 177.281 26.5048C177.624 25.6163 177.774 24.6643 177.72 23.7128C177.72 18.5751 174.769 16.6782 170.756 16.6782V16.6782ZM170.559 28.0205H169.182V19.4051H170.657C173.628 19.4051 174.848 20.8476 174.848 23.7128C174.903 24.2922 174.829 24.8766 174.633 25.4242C174.437 25.9718 174.123 26.4692 173.713 26.8807C173.303 27.2922 172.808 27.6078 172.263 27.8048C171.718 28.0019 171.136 28.0755 170.559 28.0205V28.0205Z" fill="#0A0A0B"/>
<path d="M42.7256 10.3078V2.00732H43.8396V9.24085H47.4015V10.2451L42.7256 10.3078Z" fill="#747577"/>
<path d="M49.8959 3.23148C49.7534 3.37118 49.562 3.44996 49.3624 3.45116C49.2634 3.4514 49.1654 3.43212 49.0738 3.39443C48.9823 3.35674 48.8991 3.30136 48.8289 3.23148C48.7587 3.16151 48.703 3.07837 48.665 2.98682C48.627 2.89527 48.6074 2.79712 48.6074 2.69799C48.6074 2.59886 48.627 2.50071 48.665 2.40916C48.703 2.31762 48.7587 2.23447 48.8289 2.1645C48.8991 2.09462 48.9823 2.03925 49.0738 2.00155C49.1654 1.96386 49.2634 1.94458 49.3624 1.94483C49.5117 1.94446 49.6576 1.98843 49.7818 2.07117C49.906 2.1539 50.0029 2.27166 50.06 2.40952C50.1172 2.54737 50.1321 2.69909 50.1029 2.84543C50.0737 2.99178 50.0016 3.12614 49.8959 3.23148V3.23148ZM49.8959 10.2767H48.8289V4.64367H49.8959V10.2767Z" fill="#747577"/>
<path d="M53.8346 10.4647C53.2761 10.4863 52.7257 10.3267 52.2655 10.0097C51.8704 9.71455 51.5616 9.31904 51.3711 8.86423L52.3126 8.47195C52.4245 8.7938 52.6381 9.07046 52.9212 9.26013C53.2043 9.44979 53.5414 9.54215 53.8816 9.52325C54.1692 9.53116 54.4528 9.4548 54.6976 9.30357C54.7952 9.24178 54.8754 9.15594 54.9303 9.05428C54.9853 8.95262 55.0132 8.83855 55.0114 8.72301C55.0114 8.36212 54.7603 8.11106 54.2425 7.98553L53.0971 7.7031C52.7257 7.60104 52.3788 7.42491 52.0772 7.1853C51.9214 7.05868 51.7966 6.89814 51.7123 6.71595C51.628 6.53375 51.5864 6.33471 51.5908 6.134C51.5899 5.8934 51.6499 5.65649 51.7651 5.44526C51.8803 5.23404 52.047 5.05535 52.2498 4.9258C52.7114 4.61011 53.2597 4.44562 53.8189 4.45507C54.2867 4.44598 54.748 4.56538 55.1526 4.80027C55.5349 5.0175 55.8291 5.36168 55.9842 5.77311L55.0742 6.14969C54.9655 5.90187 54.7806 5.69518 54.5464 5.55972C54.3122 5.42425 54.0408 5.36708 53.7718 5.39653C53.4969 5.39463 53.2264 5.46497 52.9873 5.60051C52.887 5.64856 52.8027 5.72438 52.7443 5.81895C52.6859 5.91352 52.6558 6.02287 52.6578 6.134C52.6578 6.44782 52.9088 6.66749 53.4109 6.77733L54.525 7.04408C54.9762 7.12647 55.3889 7.35206 55.7018 7.68741C55.9414 7.96752 56.0747 8.32305 56.0784 8.69163C56.0808 8.93787 56.0253 9.18123 55.9163 9.40202C55.8072 9.62282 55.6478 9.81485 55.4507 9.96259C54.9882 10.3156 54.4157 10.4934 53.8346 10.4647V10.4647Z" fill="#747577"/>
<path d="M59.8137 10.3712C59.5641 10.4206 59.3063 10.4087 59.0623 10.3363C58.8184 10.2639 58.5957 10.1333 58.4135 9.95572C58.2313 9.77813 58.095 9.55891 58.0164 9.31693C57.9378 9.07495 57.9191 8.81748 57.9622 8.56671V5.61681H56.9736V4.64397H57.9622V2.91797H59.0135V4.64397H60.41V5.61681H59.0135V8.48825C59.0135 9.1002 59.2802 9.41402 59.7823 9.41402C59.9493 9.41751 60.1151 9.38542 60.2687 9.31987L60.6296 10.2299C60.3689 10.3276 60.0921 10.3755 59.8137 10.3712V10.3712Z" fill="#747577"/>
<path d="M64.4104 10.4659C64.0223 10.4812 63.6354 10.4136 63.2755 10.2674C62.9156 10.1213 62.591 9.9001 62.3235 9.61855C61.7837 9.03555 61.4961 8.26293 61.5232 7.46889C61.5128 6.6899 61.7924 5.93485 62.3078 5.35062C62.5444 5.06935 62.8399 4.84346 63.1734 4.68892C63.5069 4.53437 63.8702 4.45494 64.2378 4.45623C64.6111 4.44308 64.9831 4.50897 65.3292 4.64958C65.6753 4.79019 65.9878 5.00235 66.2462 5.27216C66.7689 5.88116 67.0385 6.66728 66.9994 7.46889V7.65719H62.6687C62.6743 8.16335 62.8769 8.6474 63.2336 9.00661C63.3945 9.16667 63.5855 9.29341 63.7955 9.37957C64.0055 9.46573 64.2305 9.50962 64.4574 9.50872C64.7882 9.53323 65.1183 9.45228 65.4002 9.27749C65.6821 9.1027 65.9014 8.84307 66.0265 8.53588L66.9837 8.92815C66.7857 9.3701 66.4711 9.7498 66.0736 10.0265C65.5844 10.356 64.9984 10.5108 64.4104 10.4659V10.4659ZM65.9795 6.77849C65.9461 6.43249 65.7903 6.10976 65.5401 5.86842C65.2351 5.59965 64.8464 5.44494 64.4401 5.43063C64.0338 5.41633 63.6352 5.54331 63.312 5.78996C63.0123 6.02958 62.7887 6.35124 62.6687 6.71573L65.9795 6.77849Z" fill="#747577"/>
<path d="M69.4945 4.64493V5.42947C69.6654 5.13601 69.9155 4.89671 70.2163 4.73907C70.5353 4.55287 70.8982 4.45536 71.2676 4.45663C71.5604 4.44186 71.8528 4.49185 72.124 4.60305C72.3952 4.71426 72.6386 4.88392 72.8367 5.09996C73.2311 5.58611 73.4322 6.2007 73.4016 6.82597V10.278H72.3346V6.99857C72.3346 5.94727 71.8795 5.42947 70.9381 5.42947C70.7319 5.42516 70.5277 5.46985 70.3422 5.55987C70.1567 5.64989 69.9953 5.78267 69.8711 5.94727C69.5952 6.29447 69.4508 6.72789 69.4631 7.17117V10.3094H68.4746V4.64493H69.4945Z" fill="#747577"/>
<path d="M78.6576 5.31911C78.9315 5.04488 79.2569 4.82734 79.6149 4.67892C79.973 4.5305 80.3569 4.4541 80.7445 4.4541C81.1321 4.4541 81.5159 4.5305 81.874 4.67892C82.2321 4.82734 82.5574 5.04488 82.8314 5.31911C83.3574 5.90852 83.6481 6.67091 83.6481 7.46092C83.6481 8.25094 83.3574 9.01332 82.8314 9.60274C82.5574 9.87696 82.2321 10.0945 81.874 10.2429C81.5159 10.3913 81.1321 10.4677 80.7445 10.4677C80.3569 10.4677 79.973 10.3913 79.6149 10.2429C79.2569 10.0945 78.9315 9.87696 78.6576 9.60274C78.1315 9.01332 77.8408 8.25094 77.8408 7.46092C77.8408 6.67091 78.1315 5.90852 78.6576 5.31911V5.31911ZM79.4578 8.94372C79.6201 9.12362 79.8186 9.26701 80.0405 9.3644C80.2623 9.46178 80.5022 9.51093 80.7445 9.50859C80.9888 9.50923 81.2305 9.45938 81.4547 9.36218C81.6788 9.26497 81.8804 9.12251 82.0468 8.94372C82.2315 8.74649 82.3751 8.51454 82.4694 8.26134C82.5637 8.00814 82.6067 7.73874 82.596 7.46877C82.6178 7.18348 82.5803 6.89676 82.4858 6.6267C82.3912 6.35665 82.2418 6.1091 82.0468 5.89967C81.8773 5.72592 81.6748 5.58782 81.4511 5.49351C81.2275 5.39919 80.9872 5.35057 80.7445 5.35049C80.5038 5.34906 80.2655 5.39707 80.0442 5.49154C79.8228 5.586 79.6233 5.72492 79.4578 5.89967C79.2596 6.10685 79.108 6.35408 79.0133 6.62473C78.9185 6.89538 78.8829 7.18318 78.9086 7.46877C78.8943 7.73912 78.9357 8.00953 79.0301 8.26325C79.1246 8.51696 79.2702 8.74857 79.4578 8.94372V8.94372Z" fill="#747577"/>
<path d="M85.9693 4.64361V5.42816C86.1446 5.1382 86.3937 4.89996 86.6911 4.73775C87.0158 4.55167 87.3838 4.45426 87.7581 4.45532C88.0567 4.44734 88.3534 4.50504 88.6272 4.62434C88.9011 4.74364 89.1454 4.92162 89.3429 5.14572C89.7253 5.63748 89.92 6.2494 89.8921 6.87172V10.3237H88.8408V6.99725C88.8408 5.94596 88.37 5.42816 87.4443 5.42816C87.2379 5.42255 87.0333 5.46667 86.8476 5.55679C86.6619 5.64691 86.5006 5.78039 86.3773 5.94596C86.097 6.29166 85.947 6.72484 85.9536 7.16985V10.308H84.9023V4.64361H85.9693Z" fill="#747577"/>
<path d="M36.9155 18.021C36.9155 28.0327 28.7632 36.042 18.8945 36.042C9.02586 36.042 0.730469 28.0327 0.730469 18.021C0.730469 8.00934 8.88283 0 18.7515 0C28.6201 0 36.9155 8.00934 36.9155 18.021Z" fill="url(#paint0_linear)"/>
<path d="M6.06822 19.2251C6.07521 19.1655 6.11808 19.1237 6.1721 19.1237C6.22416 19.1237 6.26729 19.1655 6.27538 19.2248L6.49977 20.6631L6.27538 22.0769C6.26703 22.1362 6.22442 22.1774 6.1721 22.1774C6.11805 22.1774 6.07521 22.1359 6.06822 22.0764L5.87891 20.6631L6.06822 19.2251Z" fill="white"/>
<path d="M7.129 18.2337C7.18357 18.2337 7.22783 18.2763 7.23675 18.3381L7.526 20.6631L7.23646 22.9372C7.22757 22.9988 7.18328 23.0416 7.129 23.0416C7.07389 23.0416 7.0285 22.9976 7.02125 22.9367L6.76678 20.6631L7.02125 18.3381C7.02876 18.2777 7.07415 18.2337 7.129 18.2337Z" fill="white"/>
<path d="M11.0513 16.3875C11.0563 16.2789 11.1427 16.1934 11.2471 16.1934C11.3509 16.1934 11.4369 16.2789 11.4431 16.3875L11.6722 20.665L11.4431 23.4297V23.4289C11.437 23.5372 11.3509 23.6227 11.2471 23.6227C11.1427 23.6227 11.0566 23.5375 11.0513 23.4295L10.8487 20.665L11.0513 16.3875Z" fill="white"/>
<path d="M9.01943 17.8296C9.02586 17.7442 9.09128 17.6802 9.17146 17.6802C9.2508 17.6802 9.31623 17.7442 9.32321 17.8291L9.58269 20.6639L9.32321 23.406C9.31623 23.4909 9.2508 23.555 9.17146 23.555C9.09126 23.555 9.02555 23.4909 9.01943 23.406L8.79113 20.6639L9.01943 17.8296Z" fill="white"/>
<path d="M13.5963 23.3843C13.5911 23.518 13.4858 23.6224 13.3564 23.6224C13.226 23.6224 13.1205 23.5177 13.1164 23.3852L12.9401 20.6661L13.1164 14.9717C13.1206 14.8381 13.2261 14.7334 13.3566 14.7334C13.4861 14.7334 13.5914 14.8378 13.5966 14.9714L13.7952 20.6664L13.5963 23.3843Z" fill="white"/>
<path d="M18.0031 23.3081C17.9998 23.4885 17.8528 23.6352 17.6746 23.6352C17.4964 23.6352 17.3489 23.4885 17.346 23.3097C17.346 23.3097 17.2221 20.6701 17.2221 20.6659L17.346 14.0911C17.3488 13.9104 17.4961 13.7637 17.6746 13.7637C17.8528 13.7637 18 13.9107 18.0031 14.0908L18.1418 20.6681L18.0031 23.3081Z" fill="white"/>
<path d="M15.7833 23.3418C15.7791 23.5004 15.6541 23.6249 15.499 23.6249C15.3428 23.6249 15.2179 23.5004 15.2145 23.3434L15.0642 20.6673L15.2142 14.9308C15.2176 14.7721 15.3426 14.6479 15.4988 14.6479C15.6538 14.6479 15.7788 14.7721 15.783 14.9308L15.952 20.667L15.7833 23.3437V23.3418Z" fill="white"/>
<path d="M10.379 23.4289C10.372 23.5261 10.2974 23.5999 10.2052 23.5999C10.1117 23.5999 10.0374 23.5261 10.0312 23.4286L9.816 20.6639L10.0312 18.0349C10.0371 17.9371 10.1117 17.8633 10.2052 17.8633C10.2977 17.8633 10.3723 17.9366 10.379 18.0337L10.6234 20.6639L10.379 23.4289Z" fill="white"/>
<path d="M8.2758 23.3217C8.268 23.3952 8.21343 23.4484 8.14607 23.4484C8.07756 23.4484 8.02299 23.3949 8.0163 23.3212L7.77464 20.6634L8.0163 17.9048C8.02326 17.8313 8.07782 17.7779 8.14605 17.7779C8.21341 17.7779 8.26798 17.8311 8.27606 17.9048L8.55031 20.6634L8.2758 23.3217Z" fill="white"/>
<path d="M16.2758 15.1407C16.2792 14.9692 16.4142 14.8353 16.5827 14.8353C16.7508 14.8353 16.885 14.9692 16.8889 15.1401L17.0426 20.6678L16.8889 23.3273V23.325C16.885 23.4965 16.7508 23.6302 16.5827 23.6302C16.4139 23.6302 16.2792 23.4963 16.2758 23.327L16.1389 20.6676L16.2758 15.1407Z" fill="white"/>
<path d="M12.5158 23.4119C12.5102 23.533 12.4142 23.628 12.2978 23.628C12.1803 23.628 12.0845 23.533 12.0798 23.413L11.8902 20.6659L12.0795 15.4099C12.0846 15.2888 12.1803 15.1939 12.2978 15.1939C12.4142 15.1939 12.51 15.2885 12.5158 15.4099L12.7296 20.6659L12.5158 23.4119Z" fill="white"/>
<path d="M14.6855 23.3688V23.3684C14.6804 23.5136 14.5658 23.6277 14.4235 23.6277C14.2807 23.6277 14.1654 23.5132 14.1615 23.3685L13.9981 20.6664L14.1613 14.7799C14.1651 14.6334 14.2804 14.519 14.4235 14.519C14.5658 14.519 14.681 14.6337 14.6855 14.7799L14.8693 20.6667L14.6855 23.3673V23.3684C14.6855 23.3681 14.6855 23.3679 14.6855 23.3676V23.3688H14.6855Z" fill="white"/>
<path d="M27.3518 17.5206C27.731 17.3616 28.1472 17.2734 28.5835 17.2734C30.342 17.2734 31.7675 18.6994 31.7675 20.4582C31.7675 22.2169 30.3417 23.6427 28.5833 23.6427C28.5264 23.6427 19.7647 23.6383 19.7566 23.6374C19.5664 23.6182 19.4153 23.4559 19.4127 23.261V13.1545C19.415 12.9688 19.479 12.873 19.7193 12.78C20.3376 12.5409 21.0379 12.3994 21.7562 12.3994C24.6918 12.3994 27.0984 14.6507 27.3518 17.5206Z" fill="white"/>
<path d="M18.4107 13.4955C18.4135 13.3026 18.5705 13.1456 18.7618 13.1456C18.9525 13.1456 19.1095 13.3026 19.1123 13.495L19.2685 20.6689L19.1123 23.2727V23.2696C19.1095 23.4626 18.9525 23.6193 18.7618 23.6193C18.5705 23.6193 18.4135 23.4626 18.411 23.2724L18.267 20.6689L18.4107 13.4955Z" fill="white"/>
<defs>
<linearGradient id="paint0_linear" x1="18.823" y1="0" x2="18.823" y2="36.042" gradientUnits="userSpaceOnUse">
<stop stop-color="#FF7602"/>
<stop offset="1" stop-color="#FF3502"/>
</linearGradient>
</defs>
</svg>
