<svg width="179" height="38" viewBox="0 0 179 38" fill="none" xmlns="http://www.w3.org/2000/svg">
<path d="M45.4775 2.2168H46.9862V10.9501H51.4953V12.2744H45.4775V2.2168Z" fill="#747577"/>
<path d="M53.2719 3.0044C53.2931 2.78512 53.3964 2.58197 53.5612 2.4358C53.7261 2.28964 53.9401 2.21131 54.1604 2.21656C54.274 2.21433 54.387 2.23479 54.4927 2.27676C54.5983 2.31872 54.6946 2.38134 54.7757 2.46095C54.8569 2.54055 54.9214 2.63555 54.9654 2.74038C55.0094 2.84521 55.032 2.95776 55.032 3.07145C55.032 3.30263 54.9402 3.52434 54.7767 3.68781C54.6132 3.85128 54.3915 3.94311 54.1604 3.94311C54.0393 3.94331 53.9195 3.91877 53.8083 3.87101C53.6971 3.82325 53.5969 3.75328 53.5137 3.66538C53.4305 3.57748 53.3661 3.47351 53.3246 3.35985C53.283 3.24619 53.2651 3.12523 53.2719 3.0044V3.0044ZM53.4898 5.03269H54.8476V12.2742H53.4898V5.03269Z" fill="#747577"/>
<path d="M57.3284 10.3802C57.978 11.0317 58.8558 11.4045 59.7757 11.4195C60.7983 11.4195 61.3514 11.0004 61.3514 10.3802C61.3514 9.75996 60.5133 9.40794 59.5914 9.20679C58.3509 8.92182 56.9093 8.58657 56.9093 7.01088C56.9093 5.85425 57.8983 4.84849 59.6919 4.84849C60.7204 4.8131 61.721 5.18682 62.4745 5.88778L61.8711 6.84325C61.5946 6.54983 61.2587 6.31879 60.8858 6.16559C60.5129 6.01238 60.1116 5.94052 59.7087 5.95483C58.7867 5.95483 58.2168 6.32361 58.2168 6.9103C58.2168 7.497 59.0047 7.74844 59.8931 7.96635C61.167 8.25132 62.6757 8.60333 62.6757 10.2796C62.6757 11.5368 61.6532 12.509 59.7255 12.509C59.1692 12.5319 58.614 12.4428 58.0928 12.247C57.5716 12.0512 57.095 11.7527 56.6914 11.3692L57.3284 10.3802Z" fill="#747577"/>
<path d="M64.9058 10.6986V6.223H63.7324V5.03285H64.9058V3.03809H66.2636V5.03285H67.7387V6.223H66.2636V10.3969C66.2636 10.9165 66.4983 11.2853 66.9676 11.2853C67.2414 11.2912 67.5065 11.1888 67.7052 11.0004L68.0572 12.0229C67.8631 12.1924 67.637 12.3212 67.3923 12.4018C67.1476 12.4825 66.8892 12.5132 66.6324 12.4922C66.3978 12.4999 66.1643 12.4581 65.9469 12.3698C65.7294 12.2815 65.533 12.1484 65.3702 11.9794C65.2075 11.8103 65.0821 11.6089 65.0021 11.3883C64.922 11.1677 64.8893 10.9327 64.9058 10.6986Z" fill="#747577"/>
<path d="M72.7838 4.84814C73.2832 4.8504 73.7766 4.95691 74.2325 5.16085C74.6883 5.36478 75.0966 5.66166 75.4311 6.03247C75.7656 6.40328 76.019 6.83986 76.1751 7.31424C76.3312 7.78863 76.3865 8.29038 76.3375 8.78737V9.12263H70.5711C70.6015 9.75115 70.8796 10.3421 71.3445 10.7661C71.8094 11.1902 72.4233 11.4129 73.052 11.3856C73.8414 11.4057 74.6088 11.124 75.1976 10.5977L75.8346 11.4862C75.0389 12.2223 73.9844 12.6139 72.9011 12.5757C72.3949 12.5952 71.8901 12.5087 71.4192 12.3218C70.9484 12.1349 70.5217 11.8516 70.1666 11.4903C69.8116 11.1289 69.5359 10.6973 69.3573 10.2232C69.1787 9.7491 69.1011 9.24292 69.1295 8.73709C69.0999 8.23839 69.1723 7.73889 69.3424 7.26917C69.5125 6.79945 69.7767 6.36939 70.1188 6.00532C70.4609 5.64126 70.8737 5.35085 71.3319 5.15187C71.7902 4.9529 72.2842 4.84954 72.7838 4.84814V4.84814ZM70.5543 8.20068H74.9629C74.9653 7.91102 74.9094 7.62385 74.7986 7.35621C74.6878 7.08857 74.5243 6.84592 74.3179 6.64267C74.1116 6.43941 73.8664 6.27969 73.5971 6.17299C73.3278 6.06629 73.0398 6.01479 72.7503 6.02153C72.1846 6.02926 71.643 6.25176 71.2352 6.64395C70.8275 7.03613 70.5841 7.56866 70.5543 8.13363V8.20068Z" fill="#747577"/>
<path d="M83.2604 7.66449C83.2604 6.45758 82.6402 5.98822 81.7015 5.98822C81.3081 6.00041 80.9226 6.1018 80.5742 6.28474C80.2257 6.46768 79.9234 6.72739 79.69 7.04427V12.2742H78.3154V5.03275H79.6732V6.05527C79.9942 5.68365 80.3901 5.38404 80.835 5.17605C81.2799 4.96806 81.7636 4.85639 82.2547 4.84836C82.5726 4.80724 82.8957 4.83963 83.1992 4.94303C83.5027 5.04642 83.7783 5.21807 84.005 5.44477C84.2317 5.67146 84.4034 5.94714 84.5068 6.2506C84.6102 6.55406 84.6426 6.87719 84.6014 7.19514V12.2742H83.2437L83.2604 7.66449Z" fill="#747577"/>
<path d="M91.0551 3.00432C91.076 2.78796 91.177 2.58721 91.3383 2.44146C91.4995 2.29571 91.7094 2.21547 91.9268 2.21647C92.0405 2.21424 92.1534 2.23471 92.2591 2.27667C92.3648 2.31864 92.461 2.38125 92.5422 2.46086C92.6233 2.54047 92.6878 2.63547 92.7318 2.7403C92.7758 2.84512 92.7985 2.95768 92.7985 3.07137C92.7985 3.30255 92.7066 3.52426 92.5432 3.68773C92.3797 3.85119 92.158 3.94303 91.9268 3.94303C91.8072 3.94096 91.6892 3.91477 91.58 3.86601C91.4708 3.81725 91.3725 3.74693 91.2911 3.65927C91.2097 3.57161 91.1469 3.46841 91.1063 3.35587C91.0658 3.24332 91.0484 3.12375 91.0551 3.00432V3.00432ZM91.2731 5.0326H92.6308V12.2741H91.2731V5.0326Z" fill="#747577"/>
<path d="M100.006 7.66449C100.006 6.45758 99.3861 5.98822 98.4474 5.98822C98.0541 6.00041 97.6686 6.1018 97.3201 6.28474C96.9717 6.46768 96.6693 6.72739 96.4359 7.04427V12.2742H95.0781V5.03275H96.4359V6.05527C96.7569 5.68365 97.1528 5.38404 97.5977 5.17605C98.0426 4.96806 98.5263 4.85639 99.0174 4.84836C99.3353 4.80724 99.6584 4.83963 99.9619 4.94303C100.265 5.04642 100.541 5.21807 100.768 5.44477C100.994 5.67146 101.166 5.94714 101.269 6.2506C101.373 6.55406 101.405 6.87719 101.364 7.19514V12.2742H100.006V7.66449Z" fill="#747577"/>
<path d="M45.0752 20.0518H51.9479C52.6159 20.0128 53.2848 20.1106 53.9137 20.3393C54.5425 20.5681 55.1179 20.9229 55.6047 21.382C56.0915 21.8412 56.4793 22.3949 56.7444 23.0093C57.0094 23.6237 57.1462 24.2858 57.1462 24.9549C57.1462 25.6241 57.0094 26.2861 56.7444 26.9005C56.4793 27.5149 56.0915 28.0687 55.6047 28.5278C55.1179 28.9869 54.5425 29.3418 53.9137 29.5705C53.2848 29.7992 52.6159 29.8971 51.9479 29.858H47.8243V35.7417H45.0752V20.0518ZM51.5791 22.4657H47.8243V27.4945H51.5791C51.9093 27.4945 52.2363 27.4294 52.5413 27.3031C52.8464 27.1767 53.1236 26.9915 53.3571 26.758C53.5906 26.5245 53.7758 26.2473 53.9021 25.9423C54.0285 25.6372 54.0935 25.3103 54.0935 24.9801C54.0935 24.6499 54.0285 24.3229 53.9021 24.0178C53.7758 23.7128 53.5906 23.4356 53.3571 23.2021C53.1236 22.9686 52.8464 22.7834 52.5413 22.6571C52.2363 22.5307 51.9093 22.4657 51.5791 22.4657Z" fill="#0A0A0B"/>
<path d="M58.2002 30.0256C58.2002 28.4696 58.8183 26.9773 59.9186 25.8771C61.0188 24.7768 62.5111 24.1587 64.0671 24.1587C65.6231 24.1587 67.1154 24.7768 68.2157 25.8771C69.3159 26.9773 69.9341 28.4696 69.9341 30.0256C69.9341 31.5816 69.3159 33.0739 68.2157 34.1742C67.1154 35.2744 65.6231 35.8926 64.0671 35.8926C62.5111 35.8926 61.0188 35.2744 59.9186 34.1742C58.8183 33.0739 58.2002 31.5816 58.2002 30.0256ZM67.4476 30.1043C67.5531 29.6152 67.4026 29.0301 67.2869 28.5434C67.1713 28.0566 66.9481 27.602 66.6339 27.2127C66.3196 26.8234 65.9223 26.5094 65.4709 26.2936C65.0195 26.0779 64.5255 25.9659 64.0252 25.9659C63.5249 25.9659 63.031 26.0779 62.5796 26.2936C62.1282 26.5094 61.7308 26.8234 61.4166 27.2127C61.1023 27.602 60.8792 28.0566 60.7635 28.5434C60.6479 29.0301 60.5145 29.5366 60.62 30.0256C60.5145 30.5147 60.6479 31.0211 60.7635 31.5079C60.8792 31.9946 61.1023 32.4493 61.4166 32.8386C61.7308 33.2279 62.1282 33.5419 62.5796 33.7576C63.031 33.9734 63.5249 34.0853 64.0252 34.0853C64.5255 34.0853 65.0195 33.9734 65.4709 33.7576C65.9223 33.5419 66.3196 33.2279 66.6339 32.8386C66.9481 32.4493 67.1713 31.9946 67.2869 31.5079C67.4026 31.0211 67.5531 30.5933 67.4476 30.1043Z" fill="#0A0A0B"/>
<path d="M77.5785 24.0082C78.4123 23.9565 79.2458 24.1133 80.0038 24.4645C80.7618 24.8157 81.4203 25.3502 81.92 26.0197L80.2437 27.5283C79.9571 27.1016 79.5668 26.7547 79.1094 26.5201C78.652 26.2855 78.1425 26.171 77.6287 26.1873C77.1525 26.1839 76.681 26.282 76.2456 26.475C75.8102 26.6681 75.4209 26.9517 75.1037 27.3069C74.7865 27.6622 74.5487 28.081 74.406 28.5354C74.2633 28.9898 74.219 29.4693 74.2762 29.9422C74.2299 30.4138 74.2816 30.89 74.4282 31.3406C74.5747 31.7913 74.8129 32.2069 75.1277 32.5611C75.4426 32.9153 75.8273 33.2005 76.2577 33.3989C76.6881 33.5973 77.1549 33.7045 77.6287 33.7138C78.1418 33.7254 78.6496 33.6089 79.1062 33.3747C79.5628 33.1406 79.9538 32.7962 80.2437 32.3728L81.92 33.8814C81.4203 34.5509 80.7618 35.0854 80.0038 35.4366C79.2458 35.7878 78.4123 35.9446 77.5785 35.8929C76.7929 35.9169 76.0109 35.7782 75.2815 35.4855C74.5522 35.1927 73.8912 34.7523 73.3403 34.1919C72.7893 33.6315 72.3602 32.9631 72.0799 32.2289C71.7996 31.4947 71.6742 30.7104 71.7115 29.9254C71.6813 29.1445 71.812 28.3657 72.0954 27.6375C72.3789 26.9092 72.8091 26.2471 73.3594 25.6921C73.9096 25.1372 74.5681 24.7013 75.2939 24.4116C76.0197 24.1219 76.7973 23.9846 77.5785 24.0082Z" fill="#0A0A0B"/>
<path d="M87.9705 31.0486L86.3948 32.7248V35.7421H83.9307V20.0522H86.3948V29.8416L91.4236 24.377H94.4744L89.7473 29.5232L94.5414 35.7421H91.4403L87.9705 31.0486Z" fill="#0A0A0B"/>
<path d="M100.778 24.0078C104.13 24.0078 106.36 26.606 106.36 30.1765V30.7632H97.6095C97.6392 31.2069 97.7568 31.6402 97.9555 32.038C98.1542 32.4358 98.4301 32.7901 98.767 33.0803C99.104 33.3705 99.4953 33.5907 99.9182 33.7282C100.341 33.8656 100.787 33.9176 101.23 33.881C102.42 33.8812 103.567 33.439 104.449 32.6406L105.572 34.3169C104.307 35.4466 102.657 36.0468 100.962 35.9931C100.175 36.0195 99.3913 35.8825 98.6599 35.5908C97.9286 35.2992 97.2656 34.8591 96.7128 34.2984C96.16 33.7378 95.7294 33.0686 95.4481 32.3332C95.1668 31.5978 95.0409 30.8121 95.0784 30.0256C95.0399 29.2519 95.1585 28.4785 95.4272 27.752C95.6959 27.0255 96.1091 26.3609 96.6417 25.7985C97.1744 25.2361 97.8155 24.7874 98.5264 24.4797C99.2372 24.1719 100.003 24.0114 100.778 24.0078ZM97.576 29.0366H103.963C103.959 28.628 103.872 28.2244 103.708 27.85C103.544 27.4756 103.307 27.1382 103.009 26.858C102.712 26.5778 102.361 26.3605 101.977 26.2193C101.594 26.0781 101.186 26.0158 100.778 26.0361C99.9575 26.0178 99.1629 26.3218 98.5643 26.8827C97.9657 27.4437 97.6109 28.217 97.576 29.0366V29.0366Z" fill="#0A0A0B"/>
<path d="M109.226 33.0936V26.5394H107.349V24.377H109.226V21.2759H111.69V24.377H113.987V26.5394H111.69V32.4733C111.69 33.2444 112.059 33.8144 112.763 33.8144C113.168 33.8184 113.561 33.6755 113.869 33.4121L114.456 35.2727C113.802 35.8062 112.967 36.0646 112.126 35.9935C111.734 36.0391 111.337 35.9955 110.964 35.8659C110.592 35.7363 110.253 35.5241 109.974 35.2452C109.695 34.9662 109.483 34.6277 109.354 34.2551C109.224 33.8825 109.18 33.4854 109.226 33.0936V33.0936Z" fill="#0A0A0B"/>
<path d="M121.613 27.897C121.583 26.8256 121.772 25.7593 122.168 24.7634C122.565 23.7675 123.16 22.863 123.918 22.1051C124.676 21.3472 125.58 20.7519 126.576 20.3557C127.572 19.9594 128.638 19.7706 129.71 19.8006C130.995 19.7563 132.269 20.06 133.396 20.6796C134.523 21.2992 135.462 22.2118 136.113 23.3208L133.766 24.5109C133.347 23.8111 132.752 23.2328 132.041 22.833C131.329 22.4332 130.526 22.2258 129.71 22.2312C128.986 22.239 128.271 22.3938 127.608 22.6863C126.945 22.9787 126.349 23.4027 125.855 23.9325C125.362 24.4623 124.981 25.0869 124.736 25.7684C124.491 26.4499 124.386 27.1741 124.43 27.897C124.386 28.6199 124.491 29.3441 124.736 30.0256C124.981 30.7071 125.362 31.3317 125.855 31.8615C126.349 32.3913 126.945 32.8153 127.608 33.1077C128.271 33.4002 128.986 33.555 129.71 33.5628C130.527 33.5733 131.332 33.368 132.044 32.9677C132.757 32.5675 133.351 31.9863 133.766 31.2831L136.113 32.4732C135.459 33.5798 134.52 34.4903 133.393 35.1096C132.267 35.7288 130.995 36.0341 129.71 35.9934C128.638 36.0234 127.572 35.8346 126.576 35.4383C125.58 35.0421 124.676 34.4468 123.918 33.6889C123.16 32.931 122.565 32.0265 122.168 31.0306C121.772 30.0347 121.583 28.9684 121.613 27.897V27.897Z" fill="#0A0A0B"/>
<path d="M145.365 34.4845C144.897 34.9835 144.327 35.3763 143.693 35.6366C143.06 35.8968 142.379 36.0184 141.694 35.9932C141.187 36.0158 140.679 35.9355 140.203 35.7571C139.727 35.5788 139.292 35.3061 138.924 34.9553C138.557 34.6046 138.263 34.1832 138.062 33.7162C137.861 33.2493 137.757 32.7466 137.755 32.2383C137.749 31.7307 137.849 31.2273 138.048 30.7603C138.247 30.2933 138.541 29.8729 138.912 29.526C139.282 29.179 139.721 28.9131 140.2 28.7451C140.679 28.5772 141.188 28.5109 141.694 28.5505C142.376 28.5122 143.057 28.6229 143.691 28.8747C144.325 29.1266 144.896 29.5136 145.365 30.0089V28.3326C145.365 27.0084 144.293 26.2205 142.717 26.2205C142.091 26.2198 141.471 26.3456 140.895 26.5904C140.319 26.8353 139.798 27.1941 139.364 27.6453L138.359 25.9691C138.984 25.3446 139.726 24.8499 140.543 24.5133C141.36 24.1767 142.236 24.0049 143.119 24.0078C145.634 24.0078 147.846 25.0639 147.846 28.1147V35.7417H145.365V34.4845ZM145.365 31.417C145.034 31.029 144.619 30.7216 144.152 30.5183C143.684 30.315 143.176 30.221 142.667 30.2436C142.369 30.1893 142.064 30.201 141.772 30.2779C141.48 30.3548 141.208 30.4949 140.976 30.6884C140.744 30.8819 140.557 31.124 140.429 31.3977C140.301 31.6713 140.235 31.9697 140.235 32.2718C140.235 32.574 140.301 32.8724 140.429 33.146C140.557 33.4197 140.744 33.6618 140.976 33.8553C141.208 34.0488 141.48 34.1889 141.772 34.2658C142.064 34.3427 142.369 34.3544 142.667 34.3001C143.176 34.3227 143.684 34.2287 144.152 34.0254C144.619 33.8221 145.034 33.5147 145.365 33.1267V31.417Z" fill="#0A0A0B"/>
<path d="M151.082 32.3892C152.115 33.4064 153.489 34.0038 154.938 34.0655C156.413 34.0655 157.167 33.5291 157.167 32.6742C157.167 31.8193 155.977 31.3332 154.586 30.9979C152.641 30.5789 150.311 30.0592 150.311 27.5281C150.311 25.6674 151.987 24.075 154.77 24.075C156.398 24.0608 157.971 24.6591 159.179 25.7512L158.139 27.4275C157.702 26.9852 157.179 26.6368 156.603 26.4033C156.026 26.1699 155.409 26.0564 154.787 26.0697C153.496 26.0697 152.675 26.5391 152.675 27.3437C152.675 28.1483 153.798 28.5171 155.139 28.8188C157.117 29.2379 159.531 29.8078 159.531 32.4898C159.531 34.4846 157.854 36.01 154.804 36.01C153.016 36.0766 151.273 35.4454 149.942 34.2499L151.082 32.3892Z" fill="#0A0A0B"/>
<path d="M162.649 33.0936V26.5394H160.771V24.377H162.649V21.2759H165.113V24.377H167.41V26.5394H165.113V32.4733C165.113 33.2444 165.482 33.8144 166.186 33.8144C166.591 33.8184 166.984 33.6755 167.292 33.4121L167.879 35.2727C167.225 35.8062 166.39 36.0646 165.549 35.9935C165.157 36.0391 164.76 35.9955 164.387 35.8659C164.015 35.7363 163.676 35.5241 163.397 35.2452C163.118 34.9662 162.906 34.6277 162.776 34.2551C162.647 33.8825 162.603 33.4854 162.649 33.0936V33.0936Z" fill="#0A0A0B"/>
<path d="M170.142 32.3892C171.175 33.4064 172.549 34.0038 173.997 34.0655C175.472 34.0655 176.227 33.5291 176.227 32.6742C176.227 31.8193 175.036 31.3332 173.645 30.9979C171.701 30.5789 169.371 30.0592 169.371 27.5281C169.371 25.6674 171.047 24.075 173.829 24.075C175.457 24.0608 177.031 24.6591 178.238 25.7512L177.216 27.3604C176.778 26.9182 176.255 26.5697 175.679 26.3363C175.103 26.1028 174.485 25.9893 173.863 26.0027C172.572 26.0027 171.751 26.472 171.751 27.2766C171.751 28.0812 172.874 28.45 174.215 28.7517C176.193 29.1708 178.607 29.7407 178.607 32.4228C178.607 34.4175 176.931 35.9429 173.88 35.9429C172.092 36.0095 170.349 35.3783 169.019 34.1828L170.142 32.3892Z" fill="#0A0A0B"/>
<path d="M18.7912 27.5617C17.0978 27.5617 15.4423 27.0597 14.0341 26.1192C12.6258 25.1788 11.5279 23.842 10.8791 22.2778C10.2303 20.7135 10.0597 18.9921 10.3888 17.331C10.718 15.6699 11.5321 14.1436 12.7284 12.945C13.9247 11.7464 15.4494 10.9292 17.1098 10.5968C18.7703 10.2644 20.4921 10.4317 22.0575 11.0774C23.623 11.7232 24.962 12.8185 25.9052 14.2249C26.8484 15.6313 27.3536 17.2857 27.3569 18.9792H30.391C30.391 16.685 29.7106 14.4423 28.436 12.5347C27.1614 10.6271 25.3498 9.14034 23.2302 8.26238C21.1106 7.38442 18.7783 7.15471 16.5282 7.60229C14.278 8.04987 12.2112 9.15464 10.5889 10.7769C8.96665 12.3992 7.86188 14.466 7.4143 16.7162C6.96672 18.9663 7.19643 21.2986 8.07439 23.4182C8.95235 25.5378 10.4391 27.3494 12.3467 28.624C14.2543 29.8986 16.497 30.5789 18.7912 30.5789V30.5789V27.5617Z" fill="white"/>
<path d="M18.7915 11.939C16.9198 11.939 15.1248 12.6825 13.8013 14.0059C12.4779 15.3294 11.7344 17.1244 11.7344 18.9961C11.7344 20.8677 12.4779 22.6627 13.8013 23.9862C15.1248 25.3096 16.9198 26.0531 18.7915 26.0531V26.0531V23.5387C17.8937 23.5387 17.0161 23.2727 16.2694 22.7743C15.5228 22.2759 14.9405 21.5674 14.5962 20.7383C14.2519 19.9092 14.1609 18.9967 14.3349 18.116C14.5088 17.2352 14.9398 16.4258 15.5734 15.7898C16.207 15.1538 17.0149 14.7199 17.895 14.5427C18.7751 14.3655 19.6879 14.4531 20.5183 14.7944C21.3486 15.1356 22.0593 15.7153 22.5604 16.4601C23.0616 17.2049 23.3308 18.0816 23.3341 18.9793H25.8485C25.8441 17.1105 25.0986 15.3198 23.7757 14C22.4527 12.6802 20.6602 11.939 18.7915 11.939V11.939Z" fill="white"/>
<path d="M18.7907 0.22998C8.41252 0.22998 0 8.64295 0 19.0211C0 29.3993 8.41252 37.8123 18.7907 37.8123C29.1689 37.8123 37.5814 29.3993 37.5814 19.0211C37.5814 8.64295 29.1689 0.22998 18.7907 0.22998ZM24.6116 19.195C24.6116 16.0765 22.0835 13.5479 18.9645 13.5479C15.846 13.5479 13.3179 16.076 13.3179 19.195C13.3179 22.3135 15.846 24.8416 18.9645 24.8416V28.0686C14.0641 28.0686 10.0909 24.0959 10.0909 19.195C10.0909 14.2941 14.0636 10.3213 18.9645 10.3213C23.8654 10.3213 27.8382 14.2941 27.8382 19.195H24.6116V19.195ZM30.0565 19.195C30.0565 13.0692 25.0908 8.10301 18.9645 8.10301C12.8388 8.10301 7.87303 13.0692 7.87303 19.195C7.87303 25.3207 12.8388 30.2865 18.9645 30.2865V33.9841C10.797 33.9841 4.17541 27.3625 4.17541 19.195C4.17541 11.027 10.797 4.40584 18.9645 4.40584C27.1325 4.40584 33.7537 11.027 33.7537 19.195H30.0565Z" fill="#F43E37"/>
</svg>
