<svg width="142" height="37" viewBox="0 0 142 37" fill="none" xmlns="http://www.w3.org/2000/svg">
<path d="M16.8877 0.0209961C18 0.0209961 19.312 0.53638 20.4465 0.984608C24.46 2.57605 27.2836 5.47157 28.9663 9.30884C32.2319 16.7554 31.6504 23.9239 26.5991 30.4552C23.8072 34.066 19.9854 36.0776 15.27 36.0198C10.8667 35.9651 7.33324 34.0223 4.53661 30.7691C1.70988 27.48 0.313942 23.6193 0.0445787 19.337C-0.237461 14.7282 0.808302 10.4521 3.48134 6.6304C5.92304 3.13829 9.18551 0.823746 13.5318 0.139691C13.6015 0.128759 14.5 0.0209961 14.5 0.0209961H15.5H16.8877ZM19.0379 30.8238C23.4855 28.5764 26.7131 23.2586 26.4422 17.58C26.1903 12.309 23.8167 8.10628 19.068 5.28104L17.8432 7.27698C21.89 9.8008 23.9704 13.3851 23.9783 18.0532C23.9862 22.7213 21.9185 26.3477 17.8463 28.8919L19.0379 30.8238ZM13.6411 14.2112C15.3476 15.3763 15.7374 15.8558 15.9513 17.0224C15.874 17.0429 15.795 17.0565 15.7152 17.063C13.3385 17.063 10.9617 17.074 8.58498 17.0505C8.35201 17.0148 8.14051 16.8958 7.9908 16.7163C7.1225 15.7636 5.75667 15.6855 4.84717 16.5601C4.64843 16.7532 4.49182 16.9843 4.38698 17.2392C4.28214 17.4941 4.23127 17.7674 4.2375 18.0424C4.24374 18.3173 4.30694 18.5881 4.42322 18.8382C4.53951 19.0882 4.70642 19.3121 4.91372 19.4963C5.80579 20.3209 7.15894 20.2069 8.00506 19.2776C8.20952 19.0723 8.48381 18.9488 8.77512 18.9309C10.6765 18.9012 12.5652 18.9153 14.4603 18.9153H15.9449C15.6645 20.2803 14.8041 21.0674 13.6189 21.6187C14.0356 22.3137 14.4112 22.9275 14.7645 23.5334C17.0034 22.5261 18.4088 20.4224 18.4088 18.0829C18.3993 15.4731 17.2347 13.5319 14.7867 12.3043L13.6411 14.2112ZM16.8624 27.1864C19.6701 26.0057 22.473 22.1731 22.3558 17.6175C22.2607 13.9036 19.7335 9.71021 16.8529 8.71537C16.4805 9.34008 16.1034 9.96478 15.731 10.5895C18.6449 12.2949 20.0218 14.7985 20.0092 17.9907C19.9965 21.183 18.5704 23.6646 15.731 25.3154C16.1161 25.9511 16.4758 26.5523 16.8624 27.1864Z" fill="#8941F9"/>
<path d="M57.2627 34.3446C55.9988 34.3446 54.7937 34.3548 53.5898 34.3293C53.4711 34.3293 53.2974 34.1263 53.2489 33.9846C52.8506 32.8025 52.4676 31.6152 52.1 30.4228C52.0017 30.1024 51.8612 29.9773 51.5051 29.9798C49.3003 29.999 47.0943 29.9939 44.8883 29.9798C44.5934 29.9798 44.4568 30.05 44.3597 30.3628C43.9487 31.688 43.4942 33.0016 43.0537 34.3204H39.1855C39.2047 34.2015 39.2307 34.0839 39.2634 33.968C41.4763 27.4793 43.6865 20.9898 45.8943 14.4994C45.9874 14.2262 46.1087 14.1304 46.3972 14.133C47.619 14.1483 48.8407 14.1623 50.0625 14.133C50.5055 14.1215 50.688 14.2606 50.8284 14.6807C52.4813 19.7761 54.1477 24.8665 55.8277 29.9517C56.2975 31.3892 56.7673 32.8293 57.2627 34.3446ZM51.0353 27.1853C50.1148 24.3346 49.2084 21.526 48.2662 18.5961C47.2973 21.5323 46.3704 24.3409 45.4334 27.1853H51.0353Z" fill="#0A0A0B"/>
<path d="M104.857 34.3293H101.154V33.8122C101.154 30.9628 101.165 28.1146 101.154 25.2588C101.154 24.2618 100.899 23.3439 100.044 22.7055C98.7045 21.7034 96.7244 22.0302 95.6329 23.4205C94.9742 24.2667 94.6098 25.3048 94.595 26.3771C94.5235 28.827 94.5286 31.2807 94.5044 33.7331C94.5044 33.9182 94.5044 34.1046 94.5044 34.3178H90.8379V13.021H94.4827V21.5336C94.5741 21.4409 94.6594 21.3424 94.738 21.2387C96.0491 19.1527 97.9832 18.5144 100.318 18.9088C102.723 19.3148 104.226 20.908 104.669 23.4856C104.783 24.1549 104.843 24.8325 104.848 25.5116C104.867 28.2666 104.855 31.0203 104.855 33.7752L104.857 34.3293Z" fill="#0A0A0B"/>
<path d="M121.523 26.3887C121.482 28.6024 121.179 30.3284 120.127 31.8463C118.891 33.6336 117.174 34.5617 115.021 34.7353C113.27 34.877 111.597 34.6447 110.093 33.6872C108.068 32.3978 107.139 30.4497 106.885 28.139C106.707 26.5202 106.809 24.9193 107.347 23.3656C108.251 20.7549 110.538 19.0404 113.304 18.8489C114.686 18.7519 116.032 18.8591 117.311 19.3966C119.507 20.3209 120.713 22.066 121.234 24.3155C121.42 25.1261 121.466 25.97 121.523 26.3887ZM110.551 26.7717C110.551 26.8828 110.551 26.9938 110.551 27.1036C110.587 28.2526 110.743 29.3811 111.473 30.3284C112.309 31.4135 113.471 31.6867 114.75 31.4774C116.083 31.2565 116.98 30.4369 117.431 29.1794C117.967 27.6781 117.942 26.1385 117.55 24.6065C117.158 23.0746 116.181 22.2052 114.699 22.0111C113.994 21.9228 113.28 22.0493 112.648 22.3742C112.017 22.699 111.498 23.207 111.16 23.8316C110.655 24.7546 110.545 25.7542 110.551 26.7755V26.7717Z" fill="#0A0A0B"/>
<path d="M62.5753 34.3292H58.9062V19.2649H62.0978C62.2255 20.0692 62.3531 20.8607 62.4987 21.7467C63.0093 20.853 63.5659 20.11 64.3753 19.5994C67.5209 17.6142 71.5908 19.2049 72.5597 22.8242C72.7545 23.5408 72.8599 24.2787 72.8738 25.0212C72.9083 28.0124 72.8891 31.0048 72.8878 33.996C72.8878 34.0904 72.8776 34.1849 72.8712 34.3138H69.1946V33.7777C69.1946 31.0074 69.1946 28.2375 69.1946 25.4681C69.2012 25.1359 69.1768 24.8038 69.1218 24.4761C68.8869 23.2774 68.2014 22.4629 66.9771 22.219C65.5421 21.9331 64.3817 22.4118 63.5429 23.6131C62.8753 24.568 62.6251 25.6685 62.6046 26.8047C62.5612 29.1307 62.5829 31.458 62.5791 33.7853L62.5753 34.3292Z" fill="#0A0A0B"/>
<path d="M84.6797 28.9558H88.3819C88.3602 30.7431 87.7628 32.2495 86.3904 33.3998C85.018 34.55 83.3852 34.8258 81.6669 34.7645C77.777 34.6266 75.3182 31.2818 74.9645 28.1477C74.722 26.0068 74.9249 23.9476 76.0905 22.0697C78.2059 18.6636 82.8733 17.7368 86.0163 20.0921C86.6767 20.5938 87.2254 21.2274 87.6274 21.9528C88.0294 22.6781 88.2759 23.4792 88.3513 24.305C88.2517 24.3282 88.1506 24.3444 88.0487 24.3536C87.3989 24.3663 86.7402 24.3114 86.0993 24.397C85.175 24.5246 84.6286 24.3433 84.1627 23.3757C83.2218 21.4198 80.546 22.0569 79.6791 23.1739C79.0561 23.9769 78.7523 24.8872 78.6476 25.8817C78.5276 27.0128 78.5761 28.126 78.9783 29.2009C79.6166 30.9065 81.2277 31.7542 82.9843 31.3087C83.915 31.075 84.4831 30.4367 84.6057 29.4882C84.6184 29.3133 84.6452 29.1473 84.6797 28.9558Z" fill="#0A0A0B"/>
<path d="M123.925 34.3176V19.2087C124.093 19.1998 124.259 19.1832 124.424 19.1832C125.297 19.1832 126.169 19.2023 127.041 19.1729C127.462 19.1589 127.633 19.2572 127.608 19.7168C127.567 20.4215 127.596 21.1313 127.596 21.9739C127.902 21.4773 128.117 21.0802 128.373 20.7177C129.394 19.247 130.895 18.6751 132.644 19.058C132.884 19.1104 133.036 19.178 133.027 19.4793C133.011 20.5823 133.027 21.6866 133.027 22.8407C132.575 22.7782 132.224 22.713 131.869 22.6811C129.571 22.4462 128.06 23.622 127.734 25.9302C127.653 26.5225 127.61 27.1196 127.607 27.7174C127.591 29.7422 127.607 31.7657 127.607 33.7904V34.3125L123.925 34.3176Z" fill="#0A0A0B"/>
<path d="M138.153 24.3741C137.515 24.3656 136.895 24.1688 136.369 23.8086C135.844 23.4484 135.436 22.9408 135.199 22.3497C134.961 21.7586 134.903 21.1103 135.032 20.4864C135.162 19.8625 135.473 19.2909 135.927 18.8433C136.38 18.3957 136.956 18.0923 137.581 17.9711C138.207 17.8499 138.854 17.9164 139.442 18.1622C140.03 18.4079 140.532 18.8221 140.885 19.3524C141.239 19.8828 141.427 20.5058 141.427 21.143C141.431 21.5721 141.349 21.9975 141.185 22.3942C141.021 22.7908 140.779 23.1505 140.474 23.4518C140.169 23.7532 139.806 23.9902 139.407 24.1486C139.008 24.307 138.582 24.3837 138.153 24.3741V24.3741ZM138.173 23.8009C138.878 23.8028 139.555 23.5245 140.055 23.0274C140.554 22.5303 140.836 21.8549 140.838 21.15C140.84 20.4451 140.562 19.7683 140.064 19.2685C139.567 18.7687 138.892 18.4869 138.187 18.485C137.482 18.4832 136.805 18.7614 136.306 19.2586C135.806 19.7557 135.524 20.431 135.522 21.136C135.52 21.8409 135.798 22.5177 136.296 23.0175C136.793 23.5172 137.468 23.7991 138.173 23.8009V23.8009Z" fill="#0A0A0B"/>
<path d="M138.793 21.301L139.716 22.7857C138.95 22.9823 138.861 22.9466 138.51 22.3006C138.427 22.1127 138.304 21.9986 138.186 21.8308C138.066 21.6917 137.907 21.5397 137.644 21.3521V22.8279H136.906V19.3286C137.608 19.3861 138.318 19.3695 138.991 19.5188C139.549 19.6465 139.67 20.4189 139.265 20.8912C139.118 21.0394 138.961 21.1764 138.793 21.301ZM137.654 21.0865C138.101 20.9547 138.328 21.0865 138.586 20.7123C138.674 20.6485 138.654 20.085 138.586 20.0493C138.291 19.8932 138.101 19.887 137.654 19.9283V21.0865Z" fill="#0A0A0B"/>
<path d="M43.7812 9.10539V0.157715H44.9231V8.09984H48.809V9.1906L43.7812 9.10539Z" fill="#747577"/>
<path d="M51.553 1.40166C51.4808 1.48277 51.3911 1.54641 51.2908 1.58774C51.1904 1.62908 51.0819 1.64704 50.9735 1.64026C50.7624 1.63591 50.5612 1.55012 50.4119 1.40083C50.2626 1.25154 50.1768 1.05032 50.1725 0.839234C50.1681 0.731152 50.1872 0.623404 50.2284 0.523381C50.2695 0.423359 50.3319 0.333429 50.4111 0.259765C50.4835 0.18358 50.5708 0.123088 50.6675 0.0820429C50.7643 0.0409974 50.8684 0.0202754 50.9735 0.0211616C51.0813 0.0189461 51.1884 0.0389919 51.2881 0.080047C51.3878 0.121102 51.478 0.182283 51.553 0.259765C51.6289 0.335932 51.689 0.426316 51.73 0.525746C51.7709 0.625177 51.7919 0.731704 51.7916 0.839234C51.7925 0.944327 51.7718 1.04848 51.7307 1.14523C51.6897 1.24198 51.6292 1.32926 51.553 1.40166V1.40166ZM51.553 9.07109H50.4111V2.98668H51.553V9.07109Z" fill="#747577"/>
<path d="M55.8305 9.27561C55.2238 9.30036 54.6255 9.12686 54.1262 8.78135C53.6827 8.4643 53.3396 8.02655 53.1377 7.52016L54.1603 7.09408C54.2789 7.44684 54.5097 7.75109 54.8174 7.96036C55.1252 8.16963 55.4929 8.27241 55.8646 8.25302C56.1719 8.26448 56.4754 8.18119 56.7338 8.01441C56.843 7.94937 56.9335 7.85704 56.9962 7.74648C57.059 7.63592 57.0919 7.51094 57.0917 7.38381C57.0917 6.99182 56.802 6.71913 56.2566 6.56574L55.0124 6.27601C54.6039 6.16953 54.2251 5.97136 53.9046 5.69654C53.7316 5.56627 53.593 5.3957 53.5009 5.19965C53.4089 5.00361 53.3661 4.78804 53.3763 4.57169C53.3721 4.30975 53.4359 4.0512 53.5613 3.82122C53.6868 3.59124 53.8696 3.39767 54.0921 3.25936C54.591 2.91117 55.1883 2.73197 55.7964 2.74807C56.3047 2.73642 56.8063 2.86623 57.2451 3.12302C57.6649 3.35815 57.9902 3.73159 58.1654 4.17969L57.1599 4.58873C57.045 4.32091 56.8472 4.09697 56.5957 3.94974C56.3442 3.80252 56.0521 3.73975 55.7623 3.77066C55.4572 3.75829 55.1551 3.8353 54.8931 3.99222C54.7913 4.04699 54.7059 4.12804 54.646 4.22695C54.5861 4.32585 54.5537 4.439 54.5523 4.55464C54.5523 4.91255 54.825 5.15116 55.3533 5.27046L56.5804 5.56019C57.0627 5.64732 57.5045 5.88616 57.8416 6.24192C58.1118 6.54821 58.263 6.94133 58.2677 7.34973C58.2704 7.61719 58.21 7.88152 58.0916 8.12135C57.9732 8.36117 57.8 8.56975 57.586 8.73022C57.0829 9.1123 56.4615 9.30534 55.8305 9.27561V9.27561Z" fill="#747577"/>
<path d="M62.3242 9.17364C62.0581 9.19074 61.7913 9.1543 61.5395 9.06647C61.2878 8.97865 61.0562 8.84123 60.8585 8.66234C60.6823 8.46692 60.5476 8.23775 60.4627 7.98873C60.3777 7.73971 60.3442 7.47602 60.3642 7.21367V3.99251H59.2734V2.98696H60.3642V1.07812H61.5061V2.98696H63.0059V4.0266H61.5061V7.16254C61.5061 7.82723 61.7788 8.15105 62.3242 8.15105C62.5188 8.17243 62.7158 8.15505 62.9036 8.09992L63.3127 9.07138C62.9953 9.18046 62.6572 9.21544 62.3242 9.17364V9.17364Z" fill="#747577"/>
<path d="M67.318 9.27564C66.8992 9.29096 66.4819 9.21679 66.0939 9.05809C65.706 8.89939 65.3564 8.6598 65.0683 8.35531C64.4903 7.71024 64.1795 6.8693 64.1991 6.00335C64.183 5.15947 64.4806 4.33962 65.0342 3.70252C65.3018 3.39301 65.6347 3.14682 66.0091 2.98176C66.3834 2.8167 66.7898 2.73689 67.1987 2.7481C67.6048 2.72937 68.0101 2.7989 68.3867 2.9519C68.7633 3.1049 69.1023 3.33773 69.3802 3.63435C69.9439 4.29148 70.2364 5.13845 70.1983 6.00335V6.22491H65.341C65.3471 6.7747 65.5672 7.30047 65.9546 7.69063C66.3177 8.03498 66.8006 8.22447 67.301 8.21897C67.6583 8.24689 68.0153 8.16145 68.3213 7.97481C68.6273 7.78817 68.8666 7.50982 69.0053 7.17933L70.0279 7.60541C69.819 8.08928 69.476 8.50326 69.0394 8.79843C68.5278 9.12963 67.9271 9.29617 67.318 9.27564V9.27564ZM69.0223 5.2705C68.9803 4.89135 68.8123 4.53728 68.5451 4.26495C68.3656 4.10324 68.1554 3.9792 67.9271 3.90015C67.6987 3.82111 67.4569 3.78868 67.2158 3.80478C66.8117 3.79998 66.4191 3.93891 66.108 4.19678C65.7895 4.47896 65.5687 4.85489 65.4774 5.2705H69.0223Z" fill="#747577"/>
<path d="M72.8398 2.98653V3.83869C73.0254 3.51993 73.2971 3.26001 73.6238 3.08879C73.9765 2.88667 74.3762 2.78087 74.7827 2.78201C75.1003 2.76943 75.4169 2.82532 75.7109 2.94589C76.005 3.06646 76.2697 3.24888 76.487 3.48078C76.9051 4.01349 77.1169 4.67918 77.0835 5.35553V9.10503H76.0269V5.52596C76.0269 4.40111 75.5156 3.82164 74.51 3.82164C74.2859 3.81555 74.0636 3.86347 73.8619 3.96136C73.6602 4.05925 73.485 4.20423 73.3511 4.38407C73.0478 4.75361 72.8849 5.21839 72.8909 5.6964V9.10503H71.749V2.98653H72.8398Z" fill="#747577"/>
<path d="M82.8101 3.68565C83.1077 3.38779 83.4611 3.1515 83.85 2.99029C84.2389 2.82907 84.6558 2.74609 85.0769 2.74609C85.4979 2.74609 85.9148 2.82907 86.3037 2.99029C86.6927 3.1515 87.046 3.38779 87.3436 3.68565C87.915 4.32586 88.2308 5.15395 88.2308 6.01204C88.2308 6.87014 87.915 7.69823 87.3436 8.33844C87.046 8.6363 86.6927 8.87259 86.3037 9.0338C85.9148 9.19501 85.4979 9.27799 85.0769 9.27799C84.6558 9.27799 84.2389 9.19501 83.85 9.0338C83.4611 8.87259 83.1077 8.6363 82.8101 8.33844C82.5144 8.02784 82.2837 7.66132 82.1315 7.26037C81.9793 6.85942 81.9087 6.43212 81.9239 6.00352C81.9101 5.57765 81.9813 5.1533 82.1335 4.7553C82.2857 4.35731 82.5157 3.99366 82.8101 3.68565V3.68565ZM83.6623 7.62263C83.845 7.81074 84.0635 7.96028 84.3051 8.0624C84.5466 8.16452 84.8061 8.21714 85.0684 8.21714C85.3306 8.21714 85.5901 8.16452 85.8316 8.0624C86.0732 7.96028 86.2917 7.81074 86.4744 7.62263C86.8596 7.17441 87.0713 6.60301 87.0713 6.01204C87.0713 5.42108 86.8596 4.84968 86.4744 4.40146C86.2917 4.21335 86.0732 4.0638 85.8316 3.96168C85.5901 3.85957 85.3306 3.80695 85.0684 3.80695C84.8061 3.80695 84.5466 3.85957 84.3051 3.96168C84.0635 4.0638 83.845 4.21335 83.6623 4.40146C83.2771 4.84968 83.0654 5.42108 83.0654 6.01204C83.0654 6.60301 83.2771 7.17441 83.6623 7.62263V7.62263Z" fill="#747577"/>
<path d="M90.7523 2.98657V3.83873C90.9332 3.51632 91.2062 3.25522 91.5363 3.08883C91.8828 2.88658 92.277 2.78066 92.6782 2.78205C92.9962 2.766 93.3138 2.8203 93.6084 2.94109C93.903 3.06187 94.1673 3.24616 94.3825 3.48082C94.8138 4.00728 95.0327 4.67598 94.9961 5.35557V9.10507H93.9224V5.526C93.9224 4.40115 93.4281 3.82168 92.4055 3.82168C92.1816 3.817 91.9598 3.86554 91.7583 3.96332C91.5568 4.06109 91.3814 4.20531 91.2466 4.38411C90.9544 4.75871 90.7982 5.22142 90.8035 5.69643V9.10507H89.6445V2.98657H90.7523Z" fill="#747577"/>
</svg>
