<svg width="35" height="40" viewBox="0 0 35 40" fill="none" xmlns="http://www.w3.org/2000/svg">
<path d="M18.7641 0C20.0863 0.34706 21.4578 0.572649 22.7183 1.07068C27.1778 2.83895 30.3151 6.05619 32.1848 10.3198C35.8133 18.5937 35.1671 26.5588 29.5545 33.8158C26.4524 37.8278 22.206 40.0629 16.9666 39.9986C12.0741 39.9379 8.14804 37.7792 5.04068 34.1646C1.89986 30.51 0.348825 26.2204 0.0495319 21.4622C-0.263845 16.3413 0.898114 11.5901 3.86815 7.34379C6.58116 3.46366 10.2061 0.891944 15.0353 0.131883C15.1128 0.119736 15.1797 0.0451178 15.2501 0H18.7641ZM21.1532 34.2253C26.095 31.7282 29.6813 25.8195 29.3802 19.51C29.1003 13.6533 26.463 8.98364 21.1866 5.84449L19.8257 8.0622C24.3222 10.8664 26.6338 14.849 26.6426 20.0358C26.6514 25.2226 24.3539 29.2519 19.8293 32.0787L21.1532 34.2253ZM15.1568 15.7669C17.0529 17.0615 17.486 17.5942 17.7236 18.8905C17.6378 18.9132 17.55 18.9283 17.4613 18.9356C14.8205 18.9356 12.1797 18.9477 9.53887 18.9217C9.28001 18.882 9.04502 18.7498 8.87867 18.5504C7.91389 17.4918 6.3963 17.4051 5.38575 18.3768C5.16492 18.5913 4.99091 18.8481 4.87442 19.1313C4.75793 19.4145 4.70141 19.7182 4.70834 20.0237C4.71526 20.3293 4.78549 20.6302 4.91469 20.908C5.0439 21.1858 5.22936 21.4346 5.45969 21.6392C6.45087 22.5554 7.95438 22.4287 8.89451 21.3962C9.12168 21.1681 9.42646 21.0309 9.75014 21.011C11.8628 20.978 13.9614 20.9937 16.067 20.9937H17.7166C17.405 22.5103 16.449 23.3849 15.1321 23.9975C15.5951 24.7697 16.0124 25.4516 16.405 26.1249C18.8926 25.0057 20.4543 22.6682 20.4543 20.0687C20.4437 17.1691 19.1497 15.0121 16.4296 13.6481L15.1568 15.7669ZM18.736 30.1838C21.8557 28.8719 24.9701 24.6135 24.8398 19.5516C24.7341 15.4251 21.9261 10.7658 18.7254 9.66041C18.3117 10.3545 17.8927 11.0487 17.4789 11.7428C20.7166 13.6377 22.2465 16.4194 22.2324 19.9664C22.2183 23.5133 20.6338 26.2707 17.4789 28.1049C17.9067 28.8112 18.3064 29.4793 18.736 30.1838Z" fill="#8941F9"/>
</svg>
