<svg width="41" height="40" viewBox="0 0 41 40" fill="none" xmlns="http://www.w3.org/2000/svg">
<path d="M40.1587 20C40.1587 31.1111 31.1111 40 20.1587 40C9.20635 40 0 31.1111 0 20C0 8.88889 9.04762 0 20 0C30.9524 0 40.1587 8.88889 40.1587 20Z" fill="url(#paint0_linear)"/>
<path d="M5.92397 21.3365C5.93172 21.2704 5.97931 21.224 6.03926 21.224C6.09703 21.224 6.1449 21.2703 6.15387 21.3361L6.40291 22.9324L6.15387 24.5014C6.14461 24.5673 6.09732 24.613 6.03926 24.613C5.97928 24.613 5.93172 24.567 5.92397 24.5009L5.71387 22.9324L5.92397 21.3365Z" fill="white"/>
<path d="M7.10124 20.2362C7.1618 20.2362 7.21093 20.2835 7.22083 20.352L7.54183 22.9324L7.22051 25.4563C7.21064 25.5246 7.16149 25.5721 7.10124 25.5721C7.04007 25.5721 6.9897 25.5233 6.98166 25.4556L6.69924 22.9324L6.98166 20.352C6.98999 20.285 7.04036 20.2362 7.10124 20.2362Z" fill="white"/>
<path d="M11.4543 18.1872C11.4599 18.0667 11.5557 17.9719 11.6715 17.9719C11.7868 17.9719 11.8822 18.0667 11.8891 18.1872L12.1434 22.9346L11.8891 26.0029V26.0019C11.8823 26.1221 11.7868 26.217 11.6715 26.217C11.5557 26.217 11.4602 26.1224 11.4543 26.0025L11.2294 22.9346L11.4543 18.1872Z" fill="white"/>
<path d="M9.19926 19.7878C9.20641 19.6929 9.27901 19.6219 9.368 19.6219C9.45605 19.6219 9.52866 19.6929 9.53641 19.7872L9.82438 22.9333L9.53641 25.9766C9.52866 26.0708 9.45605 26.1419 9.368 26.1419C9.27899 26.1419 9.20606 26.0708 9.19926 25.9766L8.9459 22.9333L9.19926 19.7878Z" fill="white"/>
<path d="M14.2788 25.9525C14.2729 26.1008 14.1561 26.2167 14.0125 26.2167C13.8678 26.2167 13.7507 26.1005 13.7461 25.9534L13.5505 22.9358L13.7461 16.616C13.7508 16.4677 13.8679 16.3515 14.0128 16.3515C14.1564 16.3515 14.2733 16.4674 14.2791 16.6157L14.4994 22.9361L14.2788 25.9525Z" fill="white"/>
<path d="M19.1695 25.8678C19.1658 26.0681 19.0027 26.2309 18.8049 26.2309C18.6071 26.2309 18.4434 26.068 18.4403 25.8697C18.4403 25.8697 18.3028 22.9401 18.3028 22.9355L18.4403 15.6387C18.4434 15.4381 18.6068 15.2753 18.8049 15.2753C19.0026 15.2753 19.1661 15.4384 19.1695 15.6383L19.3234 22.938L19.1695 25.8678Z" fill="white"/>
<path d="M16.7059 25.9052C16.7013 26.0813 16.5626 26.2195 16.3904 26.2195C16.2171 26.2195 16.0784 26.0813 16.0747 25.9071L15.9078 22.9371L16.0743 16.5706C16.0781 16.3945 16.2168 16.2567 16.3901 16.2567C16.5622 16.2567 16.701 16.3945 16.7056 16.5706L16.8932 22.9367L16.7059 25.9074V25.9052Z" fill="white"/>
<path d="M10.7081 26.0019C10.7004 26.1098 10.6176 26.1916 10.5153 26.1916C10.4115 26.1916 10.329 26.1098 10.3222 26.0016L10.0833 22.9333L10.3222 20.0155C10.3287 19.9071 10.4115 19.8252 10.5153 19.8252C10.6179 19.8252 10.7007 19.9065 10.7081 20.0143L10.9794 22.9333L10.7081 26.0019Z" fill="white"/>
<path d="M8.37397 25.883C8.36532 25.9645 8.30476 26.0236 8.23 26.0236C8.15397 26.0236 8.09341 25.9642 8.08598 25.8823L7.81778 22.9327L8.08598 19.8712C8.0937 19.7896 8.15426 19.7303 8.22998 19.7303C8.30473 19.7303 8.36529 19.7894 8.37426 19.8712L8.67863 22.9327L8.37397 25.883Z" fill="white"/>
<path d="M17.2525 16.8036C17.2562 16.6132 17.4061 16.4646 17.5931 16.4646C17.7796 16.4646 17.9286 16.6132 17.9329 16.8029L18.1035 22.9377L17.9329 25.8891V25.8867C17.9286 26.077 17.7797 26.2253 17.5931 26.2253C17.4058 26.2253 17.2563 26.0767 17.2525 25.8888L17.1005 22.9373L17.2525 16.8036Z" fill="white"/>
<path d="M13.0796 25.9831C13.0734 26.1175 12.9668 26.2229 12.8377 26.2229C12.7072 26.2229 12.601 26.1175 12.5957 25.9843L12.3853 22.9355L12.5954 17.1023C12.601 16.9679 12.7073 16.8626 12.8377 16.8626C12.9668 16.8626 13.0731 16.9676 13.0796 17.1023L13.3169 22.9355L13.0796 25.9831Z" fill="white"/>
<path d="M15.4876 25.9352V25.9348C15.4819 26.096 15.3547 26.2225 15.1968 26.2225C15.0383 26.2225 14.9104 26.0955 14.906 25.9349L14.7247 22.9361L14.9057 16.4031C14.91 16.2406 15.038 16.1136 15.1968 16.1136C15.3547 16.1136 15.4826 16.2409 15.4876 16.4031L15.6915 22.9364L15.4876 25.9336V25.9348C15.4876 25.9345 15.4876 25.9342 15.4876 25.9339V25.9352H15.4876Z" fill="white"/>
<path d="M29.5448 19.4448C29.9656 19.2684 30.4276 19.1704 30.9118 19.1704C32.8634 19.1704 34.4454 20.7531 34.4454 22.705C34.4454 24.6568 32.8631 26.2392 30.9115 26.2392C30.8484 26.2392 21.1245 26.2343 21.1156 26.2333C20.9045 26.212 20.7367 26.0319 20.7339 25.8156V14.5992C20.7364 14.3931 20.8075 14.2868 21.0741 14.1836C21.7604 13.9182 22.5375 13.7612 23.3347 13.7612C26.5927 13.7612 29.2636 16.2597 29.5448 19.4448Z" fill="white"/>
<path d="M19.6219 14.9777C19.625 14.7636 19.7992 14.5893 20.0115 14.5893C20.2231 14.5893 20.3974 14.7636 20.4005 14.9771L20.5738 22.9389L20.4005 25.8286V25.8252C20.3974 26.0393 20.2231 26.2133 20.0115 26.2133C19.7992 26.2133 19.625 26.0393 19.6222 25.8283L19.4624 22.9389L19.6219 14.9777Z" fill="white"/>
<defs>
<linearGradient id="paint0_linear" x1="20.0794" y1="0" x2="20.0794" y2="40" gradientUnits="userSpaceOnUse">
<stop stop-color="#FF7602"/>
<stop offset="1" stop-color="#FF3502"/>
</linearGradient>
</defs>
</svg>
