<svg width="40" height="40" viewBox="0 0 40 40" fill="none" xmlns="http://www.w3.org/2000/svg">
<path d="M19.9995 0C8.9537 0 0 8.95418 0 20C0 31.0458 8.9537 40 19.9995 40C31.0453 40 39.999 31.0458 39.999 20C39.999 8.95418 31.0453 0 19.9995 0ZM26.1949 20.185C26.1949 16.8659 23.5041 14.1747 20.1845 14.1747C16.8654 14.1747 14.1747 16.8654 14.1747 20.185C14.1747 23.5041 16.8654 26.1949 20.1845 26.1949V29.6295C14.9688 29.6295 10.74 25.4012 10.74 20.185C10.74 14.9688 14.9684 10.7405 20.1845 10.7405C25.4007 10.7405 29.629 14.9688 29.629 20.185H26.1949V20.185ZM31.99 20.185C31.99 13.6652 26.7049 8.37951 20.1845 8.37951C13.6647 8.37951 8.37951 13.6652 8.37951 20.185C8.37951 26.7049 13.6647 31.99 20.1845 31.99V35.9255C11.4916 35.9255 4.44402 28.878 4.44402 20.185C4.44402 11.4916 11.4916 4.4445 20.1845 4.4445C28.878 4.4445 35.925 11.4916 35.925 20.185H31.99Z" fill="#F43E37"/>
</svg>
