<svg width="118" height="32" viewBox="0 0 118 32" fill="none" xmlns="http://www.w3.org/2000/svg">
<path d="M49.8978 27.52L45.743 18.976C48.3637 17.76 49.5782 15.232 49.5782 12.096C49.5782 8.224 47.7565 5.248 43.6336 4.608C43.0263 4.512 42.1634 4.48 41.716 4.48H32V27.52H36.3466V19.712H41.2046L44.9759 27.52H49.8978ZM36.3466 8.544H41.5242C41.9717 8.544 42.5469 8.576 42.9944 8.704C44.7522 9.184 45.1997 10.848 45.1997 12.096C45.1997 13.344 44.7522 15.008 42.9944 15.488C42.5469 15.616 41.9717 15.648 41.5242 15.648H36.3466V8.544Z" fill="#0A0A0B"/>
<path d="M67.1859 12.896C65.9714 10.592 63.4785 9.76 60.4423 9.76C56.2874 9.76 53.9224 11.744 53.0594 14.592L56.9906 15.84C57.5339 14.272 59.1639 13.728 60.4423 13.728C62.4877 13.728 63.4146 14.464 63.6064 16.064C60.3784 16.544 57.8854 16.928 56.2235 17.536C53.4429 18.56 52.4522 20.352 52.4522 22.752C52.4522 25.632 54.4976 28 58.2051 28C60.8578 28 62.5517 27.232 64.0858 25.408V27.52H67.8891V16.96C67.8891 15.392 67.8571 14.176 67.1859 12.896ZM63.127 22.272C62.7754 23.008 61.5289 24.576 59.1319 24.576C57.6298 24.576 56.7029 23.872 56.7029 22.688C56.7029 21.824 57.2143 21.216 58.4927 20.704C59.4835 20.352 60.666 20.096 63.5744 19.616C63.5424 20.448 63.4785 21.536 63.127 22.272Z" fill="#0A0A0B"/>
<path d="M83.1664 4.48V10.816C82.0797 10.144 80.8013 9.76 79.2672 9.76C74.3134 9.76 71.0854 13.6 71.0854 18.88C71.0854 24.064 74.2814 28 79.0435 28C80.9611 28 82.4952 27.456 83.7097 26.528V27.52H87.545V4.48H83.1664ZM79.7466 24.128C76.9341 24.128 75.6877 21.792 75.6877 18.88C75.6877 16 76.998 13.632 79.9064 13.632C82.6231 13.632 83.7097 15.744 83.7097 18.88C83.7097 22.016 82.655 24.128 79.7466 24.128Z" fill="#0A0A0B"/>
<path d="M92.339 7.84H96.6856V4H92.339V7.84ZM92.339 27.52H96.6856V10.24H92.339V27.52Z" fill="#0A0A0B"/>
<path d="M109.243 28C114.42 28 118 24.256 118 18.88C118 13.536 114.452 9.76 109.243 9.76C104.129 9.76 100.518 13.472 100.518 18.88C100.518 24.224 104.033 28 109.243 28ZM109.243 23.936C106.526 23.936 105.12 21.984 105.12 18.88C105.12 15.872 106.398 13.824 109.243 13.824C111.991 13.824 113.398 15.808 113.398 18.88C113.398 21.856 112.023 23.936 109.243 23.936Z" fill="#0A0A0B"/>
<path fill-rule="evenodd" clip-rule="evenodd" d="M12 0C13.9636 0 15.7488 0.863363 17.042 2.26099C17.8116 3.09016 18.4066 4.10311 18.7636 5.23574H11.0797V7.80019H19.1405V9.72352H11.0797V12.288H19.1405V14.3182C19.1405 16.4338 18.3392 18.3572 17.042 19.7505C15.7488 21.1438 13.9636 22.0115 12 22.0115C10.0364 22.0115 8.25124 21.1481 6.95802 19.7505C5.66479 18.3572 4.8595 16.4338 4.8595 14.3182V12.288H8.64793V9.72352H4.8595V7.80019H8.64793V5.23574H5.23636C5.59339 4.10311 6.18843 3.09016 6.95802 2.26099C8.25124 0.863363 10.0364 0 12 0ZM21.6198 14.3182C21.6198 17.1818 20.5448 19.7719 18.8033 21.6482C17.0618 23.5245 14.6579 24.6828 12 24.6828C9.34215 24.6828 6.93818 23.5245 5.19669 21.6482C3.45521 19.7719 2.38017 17.1818 2.38017 14.3182V8.54815H0V14.3182C0 17.887 1.34479 21.1225 3.51471 23.4604C5.42281 25.5162 7.96959 26.8839 10.8099 27.1831V29.4356H8.87802V32H15.122V29.4356H13.1901V27.1831C16.0304 26.8839 18.5772 25.5162 20.4853 23.4604C22.6552 21.1225 24 17.887 24 14.3182V8.54815H21.6198V14.3182Z" fill="#1154FF"/>
</svg>
