<svg width="234" height="33" viewBox="0 0 234 33" fill="none" xmlns="http://www.w3.org/2000/svg">
<path d="M82.6795 25.2286C80.8162 25.2286 79.1735 24.8241 77.7514 24.015C76.3294 23.2059 75.2015 22.0781 74.3679 20.6315C73.5588 19.1849 73.1543 17.53 73.1543 15.6666C73.1543 13.8033 73.5588 12.1483 74.3679 10.7017C75.2015 9.25517 76.3294 8.12735 77.7514 7.31825C79.1735 6.50916 80.8162 6.10461 82.6795 6.10461C85.0087 6.10461 86.9702 6.71756 88.5638 7.94346C90.1575 9.14484 91.175 10.8121 91.6163 12.9451H86.6514C86.4063 12.0625 85.9159 11.376 85.1804 10.8856C84.4693 10.3707 83.6235 10.1133 82.6427 10.1133C81.3433 10.1133 80.24 10.6037 79.3328 11.5844C78.4257 12.5651 77.9721 13.9258 77.9721 15.6666C77.9721 17.4074 78.4257 18.7681 79.3328 19.7489C80.24 20.7296 81.3433 21.2199 82.6427 21.2199C83.6235 21.2199 84.4693 20.9748 85.1804 20.4844C85.9159 19.994 86.4063 19.2953 86.6514 18.3881H91.6163C91.175 20.4476 90.1575 22.1026 88.5638 23.353C86.9702 24.6034 85.0087 25.2286 82.6795 25.2286Z" fill="#2E3851"/>
<path d="M103.812 25.2286C102.047 25.2286 100.453 24.8241 99.0309 24.015C97.6334 23.2059 96.5178 22.0903 95.6842 20.6683C94.8751 19.2217 94.4706 17.5545 94.4706 15.6666C94.4706 13.7787 94.8874 12.1238 95.721 10.7017C96.5546 9.25517 97.6701 8.12735 99.0677 7.31825C100.49 6.50916 102.083 6.10461 103.849 6.10461C105.589 6.10461 107.159 6.50916 108.556 7.31825C109.978 8.12735 111.094 9.25517 111.903 10.7017C112.736 12.1238 113.153 13.7787 113.153 15.6666C113.153 17.5545 112.736 19.2217 111.903 20.6683C111.094 22.0903 109.978 23.2059 108.556 24.015C107.134 24.8241 105.553 25.2286 103.812 25.2286ZM103.812 21.1464C105.038 21.1464 106.104 20.6928 107.011 19.7856C107.919 18.854 108.372 17.4809 108.372 15.6666C108.372 13.8523 107.919 12.4915 107.011 11.5844C106.104 10.6527 105.05 10.1869 103.849 10.1869C102.598 10.1869 101.519 10.6527 100.612 11.5844C99.7297 12.4915 99.2883 13.8523 99.2883 15.6666C99.2883 17.4809 99.7297 18.854 100.612 19.7856C101.519 20.6928 102.586 21.1464 103.812 21.1464Z" fill="#2E3851"/>
<path d="M116.627 24.7873V6.54594H120.782L121.187 9.00999C121.775 8.12735 122.548 7.42858 123.504 6.91371C124.485 6.37431 125.612 6.10461 126.887 6.10461C129.707 6.10461 131.705 7.19566 132.882 9.37776C133.544 8.37252 134.427 7.57569 135.53 6.98726C136.658 6.39883 137.884 6.10461 139.208 6.10461C141.586 6.10461 143.413 6.81563 144.687 8.23768C145.962 9.65972 146.6 11.7437 146.6 14.4898V24.7873H141.892V14.9311C141.892 13.3619 141.586 12.1605 140.973 11.3269C140.385 10.4933 139.465 10.0765 138.215 10.0765C136.94 10.0765 135.91 10.5424 135.125 11.474C134.365 12.4057 133.985 13.7052 133.985 15.3724V24.7873H129.278V14.9311C129.278 13.3619 128.971 12.1605 128.358 11.3269C127.746 10.4933 126.802 10.0765 125.527 10.0765C124.276 10.0765 123.259 10.5424 122.474 11.474C121.714 12.4057 121.334 13.7052 121.334 15.3724V24.7873H116.627Z" fill="#2E3851"/>
<path d="M150.334 32.8782V6.54594H154.526L155.041 9.1571C155.629 8.34801 156.402 7.63699 157.358 7.02404C158.339 6.41109 159.601 6.10461 161.146 6.10461C162.862 6.10461 164.395 6.52142 165.743 7.35503C167.092 8.18864 168.158 9.32873 168.943 10.7753C169.727 12.2218 170.12 13.8645 170.12 15.7034C170.12 17.5422 169.727 19.1849 168.943 20.6315C168.158 22.0535 167.092 23.1814 165.743 24.015C164.395 24.8241 162.862 25.2286 161.146 25.2286C159.773 25.2286 158.572 24.9712 157.542 24.4563C156.512 23.9414 155.678 23.2181 155.041 22.2865V32.8782H150.334ZM160.153 21.1096C161.649 21.1096 162.887 20.607 163.867 19.6017C164.848 18.5965 165.339 17.2971 165.339 15.7034C165.339 14.1097 164.848 12.798 163.867 11.7683C162.887 10.7385 161.649 10.2236 160.153 10.2236C158.633 10.2236 157.382 10.7385 156.402 11.7683C155.446 12.7735 154.967 14.073 154.967 15.6666C154.967 17.2603 155.446 18.572 156.402 19.6017C157.382 20.607 158.633 21.1096 160.153 21.1096Z" fill="#2E3851"/>
<path d="M179.878 25.2286C178.309 25.2286 177.022 24.9834 176.017 24.4931C175.011 23.9782 174.263 23.304 173.773 22.4703C173.283 21.6367 173.038 20.7173 173.038 19.7121C173.038 18.0203 173.7 16.6473 175.024 15.5931C176.348 14.5388 178.333 14.0117 180.981 14.0117H185.615V13.5703C185.615 12.3199 185.26 11.4005 184.549 10.8121C183.838 10.2236 182.955 9.92941 181.901 9.92941C180.945 9.92941 180.111 10.1623 179.4 10.6282C178.689 11.0695 178.248 11.7315 178.076 12.6141H173.479C173.601 11.2902 174.043 10.1378 174.803 9.1571C175.587 8.17638 176.593 7.42858 177.819 6.91371C179.044 6.37431 180.417 6.10461 181.938 6.10461C184.537 6.10461 186.584 6.75434 188.079 8.05379C189.575 9.35324 190.323 11.1921 190.323 13.5703V24.7873H186.314L185.873 21.8451C185.333 22.8259 184.573 23.635 183.593 24.2724C182.636 24.9099 181.398 25.2286 179.878 25.2286ZM180.945 21.5509C182.293 21.5509 183.335 21.1096 184.071 20.227C184.831 19.3443 185.309 18.2533 185.505 16.9538H181.496C180.246 16.9538 179.351 17.1867 178.812 17.6526C178.272 18.0939 178.002 18.6455 178.002 19.3075C178.002 20.0186 178.272 20.5702 178.812 20.9625C179.351 21.3548 180.062 21.5509 180.945 21.5509Z" fill="#2E3851"/>
<path d="M194.079 24.7873V6.54594H198.235L198.603 9.6352C199.167 8.55641 199.976 7.69828 201.03 7.06081C202.109 6.42335 203.372 6.10461 204.818 6.10461C207.074 6.10461 208.827 6.81563 210.077 8.23768C211.328 9.65972 211.953 11.7437 211.953 14.4898V24.7873H207.246V14.9311C207.246 13.3619 206.927 12.1605 206.289 11.3269C205.652 10.4933 204.659 10.0765 203.31 10.0765C201.986 10.0765 200.895 10.5424 200.037 11.474C199.204 12.4057 198.787 13.7052 198.787 15.3724V24.7873H194.079Z" fill="#2E3851"/>
<path d="M217.389 32.8782L221.618 23.5737H220.515L213.417 6.54594H218.529L223.641 19.3811L228.973 6.54594H233.975L222.39 32.8782H217.389Z" fill="#2E3851"/>
<path d="M17.7558 29.3616C16.5828 30.5346 14.6805 30.533 13.5095 29.358L2.11405 17.9233C0.945908 16.7512 0.947533 14.8545 2.11768 13.6843L13.5132 2.28883C14.6833 1.11868 16.58 1.11705 17.7522 2.28519L29.1868 13.6807C30.3618 14.8517 30.3635 16.754 29.1905 17.927L17.7558 29.3616Z" fill="#4478FF"/>
<path d="M33.4367 29.358C32.2658 30.533 30.3635 30.5346 29.1905 29.3616L17.7558 17.927C16.5828 16.754 16.5845 14.8517 17.7595 13.6807L29.1941 2.28519C30.3663 1.11705 32.263 1.11867 33.4331 2.28883L44.8286 13.6843C45.9988 14.8545 46.0004 16.7512 44.8322 17.9233L33.4367 29.358Z" fill="#001666"/>
<path d="M45.0613 29.3603C43.8894 30.534 41.9873 30.534 40.8153 29.3603L29.3983 17.9253C28.2275 16.7527 28.2291 14.8529 29.4019 13.6823L40.819 2.28654C41.9901 1.1176 43.8865 1.1176 45.0577 2.28654L56.4747 13.6823C57.6475 14.8529 57.6491 16.7527 56.4783 17.9253L45.0613 29.3603Z" fill="#042EC3"/>
</svg>
