<svg width="218" height="38" viewBox="0 0 218 38" fill="none" xmlns="http://www.w3.org/2000/svg">
<path d="M54.4141 16.2214C54.4141 13.9995 54.9102 12.0149 55.9025 10.2676C56.9164 8.49876 58.2862 7.12897 60.0119 6.15824C61.7592 5.16595 63.7114 4.6698 65.8686 4.6698C68.3925 4.6698 70.6036 5.31695 72.5019 6.61125C74.4002 7.90554 75.7268 9.69599 76.4818 11.9826H71.2723C70.7546 10.904 70.0211 10.0951 69.072 9.55577C68.1444 9.01648 67.0658 8.74684 65.8362 8.74684C64.5204 8.74684 63.3447 9.05963 62.3093 9.6852C61.2954 10.2892 60.4973 11.1521 59.9148 12.2738C59.354 13.3955 59.0735 14.7114 59.0735 16.2214C59.0735 17.7098 59.354 19.0257 59.9148 20.169C60.4973 21.2907 61.2954 22.1644 62.3093 22.79C63.3447 23.394 64.5204 23.696 65.8362 23.696C67.0658 23.696 68.1444 23.4263 69.072 22.887C70.0211 22.3262 70.7546 21.5065 71.2723 20.4279H76.4818C75.7268 22.736 74.4002 24.5373 72.5019 25.8316C70.6251 27.1043 68.4141 27.7407 65.8686 27.7407C63.7114 27.7407 61.7592 27.2553 60.0119 26.2846C58.2862 25.2923 56.9164 23.9225 55.9025 22.1752C54.9102 20.4279 54.4141 18.4433 54.4141 16.2214Z" fill="#2E3851"/>
<path d="M88.311 27.8377C86.5853 27.8377 85.0321 27.4602 83.6515 26.7052C82.271 25.9286 81.1816 24.8393 80.3834 23.4371C79.6069 22.035 79.2186 20.4171 79.2186 18.5835C79.2186 16.7499 79.6176 15.132 80.4158 13.7299C81.2355 12.3277 82.3465 11.2491 83.7486 10.4941C85.1508 9.71756 86.7147 9.32927 88.4404 9.32927C90.1662 9.32927 91.7301 9.71756 93.1323 10.4941C94.5344 11.2491 95.6346 12.3277 96.4327 13.7299C97.2525 15.132 97.6623 16.7499 97.6623 18.5835C97.6623 20.4171 97.2417 22.035 96.4004 23.4371C95.5807 24.8393 94.4589 25.9286 93.0352 26.7052C91.633 27.4602 90.0583 27.8377 88.311 27.8377ZM88.311 23.8901C89.1307 23.8901 89.8965 23.696 90.6084 23.3077C91.3418 22.8978 91.9243 22.2938 92.3557 21.4957C92.7871 20.6975 93.0028 19.7268 93.0028 18.5835C93.0028 16.8793 92.5498 15.5743 91.6438 14.6682C90.7594 13.7407 89.67 13.2769 88.3757 13.2769C87.0814 13.2769 85.9921 13.7407 85.1076 14.6682C84.2448 15.5743 83.8133 16.8793 83.8133 18.5835C83.8133 20.2877 84.234 21.6035 85.0753 22.5311C85.9381 23.4371 87.0167 23.8901 88.311 23.8901Z" fill="#2E3851"/>
<path d="M123.247 9.36163C125.447 9.36163 127.216 10.0411 128.554 11.4001C129.913 12.7376 130.592 14.6143 130.592 17.0303V27.5465H126.062V17.6451C126.062 16.243 125.706 15.1752 124.994 14.4417C124.283 13.6867 123.312 13.3092 122.082 13.3092C120.853 13.3092 119.871 13.6867 119.138 14.4417C118.426 15.1752 118.07 16.243 118.07 17.6451V27.5465H113.54V17.6451C113.54 16.243 113.184 15.1752 112.472 14.4417C111.76 13.6867 110.79 13.3092 109.56 13.3092C108.309 13.3092 107.317 13.6867 106.583 14.4417C105.871 15.1752 105.515 16.243 105.515 17.6451V27.5465H100.985V9.62049H105.515V11.7884C106.098 11.0334 106.842 10.4402 107.748 10.0088C108.676 9.57734 109.689 9.36163 110.79 9.36163C112.192 9.36163 113.443 9.66363 114.543 10.2676C115.643 10.8501 116.495 11.6914 117.099 12.7915C117.682 11.7561 118.523 10.9256 119.623 10.3C120.745 9.67442 121.953 9.36163 123.247 9.36163Z" fill="#2E3851"/>
<path d="M139.421 12.2091C140.004 11.3894 140.802 10.7099 141.816 10.1706C142.851 9.6097 144.027 9.32927 145.343 9.32927C146.874 9.32927 148.255 9.70678 149.484 10.4618C150.735 11.2168 151.717 12.2954 152.429 13.6975C153.162 15.0781 153.529 16.6852 153.529 18.5188C153.529 20.3524 153.162 21.981 152.429 23.4048C151.717 24.8069 150.735 25.8963 149.484 26.6729C148.255 27.4494 146.874 27.8377 145.343 27.8377C144.027 27.8377 142.862 27.5681 141.848 27.0288C140.856 26.4895 140.047 25.81 139.421 24.9903V36.0889H134.891V9.62049H139.421V12.2091ZM148.902 18.5188C148.902 17.4402 148.675 16.5126 148.222 15.736C147.791 14.9379 147.208 14.3339 146.475 13.924C145.763 13.5142 144.987 13.3092 144.145 13.3092C143.326 13.3092 142.549 13.525 141.816 13.9564C141.104 14.3662 140.521 14.9703 140.068 15.7684C139.637 16.5666 139.421 17.5049 139.421 18.5835C139.421 19.6621 139.637 20.6004 140.068 21.3986C140.521 22.1967 141.104 22.8115 141.816 23.243C142.549 23.6528 143.326 23.8578 144.145 23.8578C144.987 23.8578 145.763 23.642 146.475 23.2106C147.208 22.7792 147.791 22.1644 148.222 21.3662C148.675 20.5681 148.902 19.6189 148.902 18.5188Z" fill="#2E3851"/>
<path d="M155.656 18.5188C155.656 16.7068 156.012 15.0997 156.724 13.6975C157.457 12.2954 158.439 11.2168 159.668 10.4618C160.919 9.70678 162.311 9.32927 163.842 9.32927C165.18 9.32927 166.345 9.59892 167.337 10.1382C168.351 10.6775 169.16 11.357 169.764 12.1767V9.62049H174.326V27.5465H169.764V24.9256C169.181 25.7669 168.372 26.4679 167.337 27.0288C166.323 27.5681 165.147 27.8377 163.81 27.8377C162.3 27.8377 160.919 27.4494 159.668 26.6729C158.439 25.8963 157.457 24.8069 156.724 23.4048C156.012 21.981 155.656 20.3524 155.656 18.5188ZM169.764 18.5835C169.764 17.4833 169.548 16.545 169.117 15.7684C168.685 14.9703 168.103 14.3662 167.369 13.9564C166.636 13.525 165.849 13.3092 165.007 13.3092C164.166 13.3092 163.389 13.5142 162.678 13.924C161.966 14.3339 161.383 14.9379 160.93 15.736C160.499 16.5126 160.283 17.4402 160.283 18.5188C160.283 19.5974 160.499 20.5465 160.93 21.3662C161.383 22.1644 161.966 22.7792 162.678 23.2106C163.411 23.642 164.188 23.8578 165.007 23.8578C165.849 23.8578 166.636 23.6528 167.369 23.243C168.103 22.8115 168.685 22.2075 169.117 21.431C169.548 20.6328 169.764 19.6837 169.764 18.5835Z" fill="#2E3851"/>
<path d="M188.684 9.36163C190.82 9.36163 192.546 10.0411 193.861 11.4001C195.177 12.7376 195.835 14.6143 195.835 17.0303V27.5465H191.305V17.6451C191.305 16.2214 190.949 15.132 190.237 14.377C189.526 13.6005 188.555 13.2122 187.325 13.2122C186.074 13.2122 185.082 13.6005 184.348 14.377C183.637 15.132 183.281 16.2214 183.281 17.6451V27.5465H178.751V9.62049H183.281V11.8532C183.885 11.0766 184.65 10.4726 185.578 10.0411C186.527 9.58813 187.563 9.36163 188.684 9.36163Z" fill="#2E3851"/>
<path d="M217.293 9.62049L206.194 36.0242H201.373L205.256 27.0935L198.072 9.62049H203.152L207.779 22.1428L212.471 9.62049H217.293Z" fill="#2E3851"/>
<path d="M14.7191 37.0496C6.95213 37.0496 0.680664 30.7299 0.680664 23.0112C0.680664 15.2925 6.95213 8.97278 14.7191 8.97278C22.4378 8.97278 28.7575 15.2442 28.7575 23.0112C28.7093 30.7299 22.4378 37.0496 14.7191 37.0496Z" fill="#042EC3"/>
<path d="M35.5508 0H16.8981C15.6945 0 14.7188 0.975745 14.7188 2.17939V20.8321C14.7188 22.0357 15.6945 23.0114 16.8981 23.0114H35.5508C36.7544 23.0114 37.7302 22.0357 37.7302 20.8321V2.17939C37.7302 0.975747 36.7545 0 35.5508 0Z" fill="#4478FF"/>
</svg>
