<svg width="218" height="39" viewBox="0 0 218 39" fill="none" xmlns="http://www.w3.org/2000/svg">
<path d="M30.1934 16.8694C25.1212 16.8694 21.004 12.7679 21.004 7.72703C21.004 7.06952 21.0823 6.44333 21.2075 5.81714H8.99677C4.26902 5.81714 0.433594 9.63691 0.433594 14.3334V30.0664C0.433594 34.7785 4.26902 38.5826 8.99677 38.5826H24.8081C29.5515 38.5826 33.3713 34.7629 33.3713 30.0664V16.2902C32.4007 16.6503 31.3205 16.8694 30.1934 16.8694Z" fill="#1154FF"/>
<path d="M33.386 30.0664V16.2902C32.3997 16.6503 31.3195 16.8694 30.208 16.8694C25.1359 16.8694 21.0187 12.7679 21.0187 7.72702C21.0187 7.06952 21.0969 6.44333 21.2222 5.81714H9.01142C4.31498 5.81714 0.510861 9.57429 0.448242 14.2394C11.7197 18.8889 23.3043 24.5403 33.3233 31.1466C33.3546 30.7866 33.386 30.4265 33.386 30.0664Z" fill="#1154FF"/>
<path d="M30.8974 13.7113C34.5763 13.7113 37.5507 10.7525 37.5507 7.08927C37.5507 3.4417 34.5763 0.467285 30.8974 0.467285C27.2186 0.467285 24.2441 3.42604 24.2441 7.08927C24.2441 10.7368 27.2186 13.7113 30.8974 13.7113Z" fill="#042EC3"/>
<path d="M69.9679 23.2696C69.7374 24.2492 69.3484 25.2 68.801 26.1219C68.2536 27.0151 67.5765 27.8218 66.7698 28.5421C65.9631 29.2336 65.0411 29.7954 64.0039 30.2275C62.9667 30.6309 61.8575 30.8326 60.6762 30.8326C59.3221 30.8326 58.04 30.5733 56.8299 30.0547C55.6487 29.5073 54.597 28.7726 53.6751 27.8506C52.7819 26.9287 52.0616 25.8626 51.5142 24.6526C50.9956 23.4137 50.7363 22.0884 50.7363 20.6766C50.7363 19.2649 50.9956 17.9539 51.5142 16.7439C52.0616 15.505 52.7819 14.4246 53.6751 13.5026C54.597 12.5806 55.6487 11.8604 56.8299 11.3418C58.04 10.7943 59.3221 10.5206 60.6762 10.5206C61.8575 10.5206 62.9667 10.7367 64.0039 11.1689C65.0411 11.5722 65.9631 12.1341 66.7698 12.8543C67.5765 13.5458 68.2536 14.3525 68.801 15.2745C69.3484 16.1676 69.7374 17.104 69.9679 18.0836H64.9979C64.7674 17.565 64.4505 17.104 64.0471 16.7006C63.7014 16.3549 63.2548 16.038 62.7074 15.7499C62.16 15.433 61.4829 15.2745 60.6762 15.2745C59.2645 15.2745 58.0832 15.7643 57.1324 16.7439C56.1817 17.7235 55.7063 19.0344 55.7063 20.6766C55.7063 22.3189 56.1817 23.6298 57.1324 24.6093C58.0832 25.5889 59.2645 26.0787 60.6762 26.0787C61.4829 26.0787 62.16 25.9347 62.7074 25.6466C63.2548 25.3584 63.7014 25.0415 64.0471 24.6958C64.4505 24.2924 64.7674 23.817 64.9979 23.2696H69.9679Z" fill="#2E3851"/>
<path d="M78.1791 20.6766C78.1791 22.3189 78.6545 23.6298 79.6052 24.6093C80.556 25.5889 81.7373 26.0787 83.149 26.0787C84.5608 26.0787 85.742 25.5889 86.6928 24.6093C87.6436 23.6298 88.119 22.3189 88.119 20.6766C88.119 19.0344 87.6436 17.7235 86.6928 16.7439C85.742 15.7643 84.5608 15.2745 83.149 15.2745C81.7373 15.2745 80.556 15.7643 79.6052 16.7439C78.6545 17.7235 78.1791 19.0344 78.1791 20.6766ZM93.0889 20.6766C93.0889 22.0884 92.8152 23.4137 92.2678 24.6526C91.7492 25.8626 91.0289 26.9287 90.1069 27.8506C89.2138 28.7726 88.1622 29.5073 86.9521 30.0547C85.7708 30.5733 84.5031 30.8326 83.149 30.8326C81.7949 30.8326 80.5128 30.5733 79.3027 30.0547C78.1214 29.5073 77.0698 28.7726 76.1479 27.8506C75.2547 26.9287 74.5344 25.8626 73.987 24.6526C73.4684 23.4137 73.2091 22.0884 73.2091 20.6766C73.2091 19.2649 73.4684 17.9539 73.987 16.7439C74.5344 15.505 75.2547 14.4246 76.1479 13.5026C77.0698 12.5806 78.1214 11.8604 79.3027 11.3418C80.5128 10.7943 81.7949 10.5206 83.149 10.5206C84.5031 10.5206 85.7708 10.7943 86.9521 11.3418C88.1622 11.8604 89.2138 12.5806 90.1069 13.5026C91.0289 14.4246 91.7492 15.505 92.2678 16.7439C92.8152 17.9539 93.0889 19.2649 93.0889 20.6766Z" fill="#2E3851"/>
<path d="M106.898 10.5206C107.906 10.5206 108.771 10.6647 109.491 10.9528C110.211 11.2121 110.802 11.5002 111.263 11.8171C111.782 12.1917 112.199 12.6239 112.516 13.1136C112.977 12.6239 113.51 12.1917 114.115 11.8171C114.634 11.5002 115.253 11.2121 115.974 10.9528C116.694 10.6647 117.486 10.5206 118.351 10.5206C120.511 10.5206 122.24 11.2121 123.537 12.595C124.833 13.978 125.481 16.0236 125.481 18.7318V30.6165H120.511V19.164C120.511 17.9539 120.18 17.0032 119.517 16.3117C118.884 15.6202 118.134 15.2745 117.27 15.2745C116.406 15.2745 115.642 15.6202 114.98 16.3117C114.346 17.0032 114.029 17.9539 114.029 19.164V30.6165H109.059V19.164C109.059 17.9539 108.728 17.0032 108.065 16.3117C107.431 15.6202 106.682 15.2745 105.818 15.2745C104.953 15.2745 104.19 15.6202 103.527 16.3117C102.893 17.0032 102.576 17.9539 102.576 19.164V30.6165H97.6064V10.7367H101.28L102.144 12.6815C102.548 12.2781 102.994 11.918 103.484 11.6011C103.887 11.3418 104.377 11.0969 104.953 10.8664C105.53 10.6359 106.178 10.5206 106.898 10.5206Z" fill="#2E3851"/>
<path d="M141.039 10.5206C142.278 10.5206 143.46 10.7799 144.583 11.2985C145.707 11.7883 146.686 12.4942 147.522 13.4162C148.386 14.3093 149.063 15.3753 149.553 16.6142C150.072 17.8531 150.331 19.2072 150.331 20.6766C150.331 22.146 150.072 23.5001 149.553 24.739C149.063 25.9779 148.386 27.0583 147.522 27.9803C146.686 28.8734 145.707 29.5793 144.583 30.0979C143.46 30.5877 142.278 30.8326 141.039 30.8326C140.204 30.8326 139.469 30.7317 138.835 30.5301C138.23 30.3284 137.697 30.1123 137.236 29.8818C136.718 29.5937 136.257 29.2624 135.853 28.8878V37.5312H130.883V10.7367H134.557L135.421 12.6815C135.853 12.2781 136.358 11.918 136.934 11.6011C137.424 11.3418 138.014 11.0969 138.706 10.8664C139.397 10.6359 140.175 10.5206 141.039 10.5206ZM135.421 20.6766C135.421 22.3189 135.897 23.6298 136.847 24.6093C137.798 25.5889 138.979 26.0787 140.391 26.0787C141.803 26.0787 142.984 25.5889 143.935 24.6093C144.886 23.6298 145.361 22.3189 145.361 20.6766C145.361 19.0344 144.886 17.7235 143.935 16.7439C142.984 15.7643 141.803 15.2745 140.391 15.2745C138.979 15.2745 137.798 15.7643 136.847 16.7439C135.897 17.7235 135.421 19.0344 135.421 20.6766Z" fill="#2E3851"/>
<path d="M163.087 10.5206C164.21 10.5206 165.248 10.7223 166.198 11.1257C167.149 11.5002 167.97 12.0332 168.662 12.7247C169.353 13.4162 169.886 14.2373 170.261 15.1881C170.664 16.1388 170.866 17.176 170.866 18.2997V30.6165H167.192L166.328 28.6717C165.867 29.0751 165.363 29.4352 164.815 29.7522C164.326 30.0403 163.735 30.2996 163.044 30.5301C162.352 30.7317 161.574 30.8326 160.71 30.8326C158.549 30.8326 156.892 30.314 155.74 29.2768C154.587 28.2108 154.011 26.8566 154.011 25.2144C154.011 24.2348 154.199 23.3417 154.573 22.5349C154.976 21.6994 155.639 20.9935 156.561 20.4173C157.483 19.8123 158.693 19.3513 160.191 19.0344C161.718 18.6886 163.62 18.5158 165.896 18.5158C165.896 17.4209 165.593 16.571 164.988 15.966C164.412 15.3609 163.634 15.0584 162.655 15.0584C161.992 15.0584 161.459 15.1737 161.056 15.4041C160.681 15.6346 160.379 15.8795 160.148 16.1388C159.889 16.4558 159.716 16.8159 159.629 17.2193H154.66C154.775 16.2973 155.034 15.433 155.437 14.6262C155.87 13.8195 156.446 13.1136 157.166 12.5086C157.886 11.9036 158.736 11.4282 159.716 11.0825C160.724 10.7079 161.848 10.5206 163.087 10.5206ZM161.574 26.9431C162.871 26.9431 163.908 26.5685 164.686 25.8194C165.493 25.0415 165.896 24.0475 165.896 22.8375V21.9731C164.427 21.9731 163.245 22.0451 162.352 22.1892C161.459 22.3044 160.753 22.4917 160.234 22.751C159.745 22.9815 159.413 23.2696 159.241 23.6154C159.068 23.9611 158.981 24.35 158.981 24.7822C158.981 25.3296 159.226 25.8338 159.716 26.2948C160.206 26.727 160.825 26.9431 161.574 26.9431Z" fill="#2E3851"/>
<path d="M186.407 10.5206C187.588 10.5206 188.669 10.7223 189.648 11.1257C190.628 11.5002 191.463 12.062 192.155 12.8111C192.875 13.5314 193.423 14.4102 193.797 15.4474C194.201 16.4846 194.402 17.6514 194.402 18.9479V30.6165H189.432V19.5962C189.432 18.2997 189.043 17.2625 188.265 16.4846C187.516 15.6778 186.537 15.2745 185.327 15.2745C184.117 15.2745 183.123 15.6778 182.345 16.4846C181.596 17.2625 181.221 18.2997 181.221 19.5962V30.6165H176.251V10.7367H179.925L180.789 12.6815C181.279 12.2781 181.812 11.918 182.388 11.6011C182.878 11.3418 183.454 11.0969 184.117 10.8664C184.808 10.6359 185.572 10.5206 186.407 10.5206Z" fill="#2E3851"/>
<path d="M197.66 10.7367H202.846L207.816 23.7018L212.354 10.7367H217.54C216.128 14.3669 214.846 17.6514 213.694 20.5902C213.204 21.8579 212.714 23.0968 212.224 24.3068C211.763 25.5169 211.346 26.6261 210.971 27.6345C210.597 28.6141 210.28 29.4352 210.02 30.0979C209.761 30.7606 209.603 31.1495 209.545 31.2648C209.055 32.446 208.565 33.44 208.076 34.2467C207.615 35.0822 207.11 35.7593 206.563 36.2779C206.016 36.7965 205.425 37.1711 204.791 37.4016C204.157 37.632 203.437 37.7473 202.63 37.7473C202.4 37.7473 202.169 37.7329 201.939 37.7041C201.737 37.7041 201.564 37.6897 201.42 37.6609C201.219 37.632 201.046 37.5888 200.902 37.5312V33.4256C201.996 33.4256 202.832 33.1807 203.408 32.6909C204.013 32.2011 204.474 31.5817 204.791 30.8326L205.223 29.7522L197.66 10.7367Z" fill="#2E3851"/>
</svg>
