<svg width="236" height="37" viewBox="0 0 236 37" fill="none" xmlns="http://www.w3.org/2000/svg">
<path d="M24.116 0.66748C23.0459 0.66748 21.9975 0.766521 20.9829 0.954941C28.8748 2.42606 34.8486 9.34926 34.8486 17.6663C34.8486 23.5942 30.0439 28.3989 24.116 28.3989C18.188 28.3989 13.3833 23.5942 13.3833 17.6663C13.3833 12.8495 16.5551 8.77434 20.9249 7.41675L20.9346 7.38535C19.9587 7.09306 18.9224 6.93604 17.8498 6.93604C11.9219 6.93604 7.11719 11.7407 7.11719 17.6687C7.11719 27.0582 14.7288 34.6675 24.116 34.6675C33.5055 34.6675 41.1148 27.0558 41.1148 17.6687C41.1148 8.27913 33.5031 0.66748 24.116 0.66748Z" fill="#042EC3"/>
<path d="M17.8933 0.66748C8.50618 0.66748 0.894531 8.27913 0.894531 17.6663C0.894531 27.0558 8.50618 34.6651 17.8933 34.6651C18.9634 34.6651 20.0118 34.566 21.0264 34.3776C13.1345 32.9065 7.16068 25.9833 7.16068 17.6663C7.16068 11.7383 11.9654 6.93363 17.8933 6.93363C23.8213 6.93363 28.626 11.7383 28.626 17.6663C28.626 22.483 25.4542 26.5582 21.0844 27.9158L21.0747 27.9472C22.0506 28.2395 23.0869 28.3965 24.1595 28.3965C30.0874 28.3965 34.8921 23.5918 34.8921 17.6639C34.8945 8.27913 27.2829 0.66748 17.8933 0.66748Z" fill="#1154FF"/>
<path d="M77.6231 20.9103C77.3767 21.9571 76.9611 22.9732 76.376 23.9585C75.791 24.913 75.0674 25.7752 74.2053 26.5449C73.3432 27.2839 72.3579 27.8843 71.2494 28.3462C70.1409 28.7773 68.9555 28.9928 67.6931 28.9928C66.2459 28.9928 64.8757 28.7157 63.5825 28.1615C62.3201 27.5764 61.1963 26.7913 60.211 25.806C59.2564 24.8207 58.4867 23.6814 57.9017 22.3882C57.3474 21.0642 57.0703 19.6478 57.0703 18.1391C57.0703 16.6304 57.3474 15.2294 57.9017 13.9362C58.4867 12.6122 59.2564 11.4575 60.211 10.4722C61.1963 9.48693 62.3201 8.71717 63.5825 8.16293C64.8757 7.57791 66.2459 7.2854 67.6931 7.2854C68.9555 7.2854 70.1409 7.51633 71.2494 7.97819C72.3579 8.40926 73.3432 9.00968 74.2053 9.77944C75.0674 10.5184 75.791 11.3806 76.376 12.3659C76.9611 13.3204 77.3767 14.3211 77.6231 15.3679H72.3117C72.0654 14.8137 71.7267 14.3211 71.2956 13.89C70.9261 13.5205 70.4488 13.1818 69.8638 12.8739C69.2788 12.5352 68.5552 12.3659 67.6931 12.3659C66.1843 12.3659 64.9219 12.8893 63.9058 13.9362C62.8897 14.9831 62.3817 16.384 62.3817 18.1391C62.3817 19.8942 62.8897 21.2951 63.9058 22.342C64.9219 23.3889 66.1843 23.9123 67.6931 23.9123C68.5552 23.9123 69.2788 23.7584 69.8638 23.4505C70.4488 23.1426 70.9261 22.8039 71.2956 22.4344C71.7267 22.0033 72.0654 21.4953 72.3117 20.9103H77.6231Z" fill="#2E3851"/>
<path d="M86.3984 18.1391C86.3984 19.8942 86.9064 21.2951 87.9225 22.342C88.9386 23.3889 90.201 23.9123 91.7098 23.9123C93.2185 23.9123 94.4809 23.3889 95.497 22.342C96.5131 21.2951 97.0212 19.8942 97.0212 18.1391C97.0212 16.384 96.5131 14.9831 95.497 13.9362C94.4809 12.8893 93.2185 12.3659 91.7098 12.3659C90.201 12.3659 88.9386 12.8893 87.9225 13.9362C86.9064 14.9831 86.3984 16.384 86.3984 18.1391ZM102.333 18.1391C102.333 19.6478 102.04 21.0642 101.455 22.3882C100.901 23.6814 100.131 24.8207 99.1457 25.806C98.1912 26.7913 97.0674 27.5764 95.7742 28.1615C94.5117 28.7157 93.1569 28.9928 91.7098 28.9928C90.2626 28.9928 88.8924 28.7157 87.5992 28.1615C86.3368 27.5764 85.213 26.7913 84.2277 25.806C83.2731 24.8207 82.5034 23.6814 81.9184 22.3882C81.3641 21.0642 81.087 19.6478 81.087 18.1391C81.087 16.6304 81.3641 15.2294 81.9184 13.9362C82.5034 12.6122 83.2731 11.4575 84.2277 10.4722C85.213 9.48693 86.3368 8.71717 87.5992 8.16293C88.8924 7.57791 90.2626 7.2854 91.7098 7.2854C93.1569 7.2854 94.5117 7.57791 95.7742 8.16293C97.0674 8.71717 98.1912 9.48693 99.1457 10.4722C100.131 11.4575 100.901 12.6122 101.455 13.9362C102.04 15.2294 102.333 16.6304 102.333 18.1391Z" fill="#2E3851"/>
<path d="M117.09 7.2854C118.168 7.2854 119.092 7.43935 119.862 7.74726C120.631 8.02438 121.263 8.33228 121.755 8.67098C122.309 9.07126 122.756 9.53312 123.095 10.0566C123.587 9.53312 124.157 9.07126 124.803 8.67098C125.358 8.33228 126.02 8.02438 126.789 7.74726C127.559 7.43935 128.406 7.2854 129.33 7.2854C131.639 7.2854 133.486 8.02438 134.872 9.50233C136.258 10.9803 136.95 13.1664 136.95 16.0607V28.7619H131.639V16.5226C131.639 15.2294 131.285 14.2133 130.577 13.4743C129.899 12.7353 129.099 12.3659 128.175 12.3659C127.251 12.3659 126.435 12.7353 125.727 13.4743C125.05 14.2133 124.711 15.2294 124.711 16.5226V28.7619H119.4V16.5226C119.4 15.2294 119.046 14.2133 118.337 13.4743C117.66 12.7353 116.859 12.3659 115.936 12.3659C115.012 12.3659 114.196 12.7353 113.488 13.4743C112.811 14.2133 112.472 15.2294 112.472 16.5226V28.7619H107.16V7.51633H111.086L112.01 9.5947C112.441 9.16363 112.918 8.77875 113.442 8.44005C113.873 8.16293 114.396 7.90121 115.012 7.65489C115.628 7.40856 116.321 7.2854 117.09 7.2854Z" fill="#2E3851"/>
<path d="M153.577 7.2854C154.901 7.2854 156.164 7.56252 157.365 8.11675C158.565 8.64019 159.612 9.39456 160.505 10.3799C161.429 11.3344 162.153 12.4736 162.676 13.7976C163.23 15.1216 163.507 16.5688 163.507 18.1391C163.507 19.7094 163.23 21.1566 162.676 22.4806C162.153 23.8046 161.429 24.9592 160.505 25.9445C159.612 26.899 158.565 27.6534 157.365 28.2076C156.164 28.7311 154.901 28.9928 153.577 28.9928C152.684 28.9928 151.899 28.885 151.222 28.6695C150.575 28.454 150.006 28.223 149.513 27.9767C148.959 27.6688 148.466 27.3147 148.035 26.9144V36.1516H142.724V7.51633H146.649L147.573 9.5947C148.035 9.16363 148.574 8.77875 149.19 8.44005C149.713 8.16293 150.344 7.90121 151.083 7.65489C151.822 7.40856 152.654 7.2854 153.577 7.2854ZM147.573 18.1391C147.573 19.8942 148.081 21.2951 149.097 22.342C150.113 23.3889 151.376 23.9123 152.885 23.9123C154.393 23.9123 155.656 23.3889 156.672 22.342C157.688 21.2951 158.196 19.8942 158.196 18.1391C158.196 16.384 157.688 14.9831 156.672 13.9362C155.656 12.8893 154.393 12.3659 152.885 12.3659C151.376 12.3659 150.113 12.8893 149.097 13.9362C148.081 14.9831 147.573 16.384 147.573 18.1391Z" fill="#2E3851"/>
<path d="M177.139 7.2854C178.34 7.2854 179.449 7.50093 180.465 7.932C181.481 8.33228 182.358 8.90191 183.097 9.64088C183.836 10.3799 184.406 11.2574 184.806 12.2735C185.237 13.2896 185.453 14.398 185.453 15.5989V28.7619H181.527L180.603 26.6835C180.111 27.1146 179.572 27.4995 178.987 27.8382C178.463 28.1461 177.832 28.4232 177.093 28.6695C176.354 28.885 175.523 28.9928 174.599 28.9928C172.29 28.9928 170.519 28.4386 169.288 27.3301C168.056 26.1909 167.44 24.7437 167.44 22.9886C167.44 21.9417 167.64 20.9872 168.041 20.1251C168.472 19.2322 169.18 18.4778 170.165 17.862C171.151 17.2154 172.444 16.7227 174.045 16.384C175.677 16.0145 177.709 15.8298 180.141 15.8298C180.141 14.6598 179.818 13.7514 179.172 13.1048C178.556 12.4582 177.724 12.1349 176.678 12.1349C175.969 12.1349 175.4 12.2581 174.969 12.5044C174.568 12.7507 174.245 13.0125 173.999 13.2896C173.722 13.6283 173.537 14.0132 173.444 14.4442H168.133C168.256 13.4589 168.533 12.5352 168.964 11.6731C169.426 10.8109 170.042 10.0566 170.812 9.40995C171.582 8.76335 172.49 8.25531 173.537 7.88582C174.615 7.48554 175.815 7.2854 177.139 7.2854ZM175.523 24.8361C176.908 24.8361 178.017 24.4358 178.848 23.6352C179.71 22.8039 180.141 21.7416 180.141 20.4484V19.5247C178.571 19.5247 177.309 19.6017 176.354 19.7556C175.4 19.8788 174.645 20.0789 174.091 20.356C173.568 20.6024 173.214 20.9103 173.029 21.2797C172.844 21.6492 172.752 22.0649 172.752 22.5268C172.752 23.1118 173.013 23.6506 173.537 24.1433C174.06 24.6051 174.722 24.8361 175.523 24.8361Z" fill="#2E3851"/>
<path d="M202.062 7.2854C203.324 7.2854 204.479 7.50093 205.526 7.932C206.573 8.33228 207.466 8.9327 208.204 9.73326C208.974 10.503 209.559 11.4421 209.96 12.5506C210.391 13.6591 210.606 14.9061 210.606 16.2917V28.7619H205.295V16.9845C205.295 15.5989 204.879 14.4904 204.048 13.6591C203.247 12.7969 202.2 12.3659 200.907 12.3659C199.614 12.3659 198.552 12.7969 197.72 13.6591C196.92 14.4904 196.519 15.5989 196.519 16.9845V28.7619H191.208V7.51633H195.134L196.058 9.5947C196.581 9.16363 197.151 8.77875 197.766 8.44005C198.29 8.16293 198.906 7.90121 199.614 7.65489C200.353 7.40856 201.169 7.2854 202.062 7.2854Z" fill="#2E3851"/>
<path d="M214.088 7.51633H219.63L224.942 21.3721L229.791 7.51633H235.334C233.825 11.396 232.455 14.9061 231.223 18.0467C230.7 19.4015 230.176 20.7255 229.653 22.0187C229.16 23.3119 228.714 24.4974 228.313 25.575C227.913 26.6219 227.574 27.4995 227.297 28.2076C227.02 28.9158 226.851 29.3315 226.789 29.4547C226.266 30.7171 225.742 31.7794 225.219 32.6415C224.726 33.5344 224.187 34.258 223.602 34.8122C223.017 35.3665 222.386 35.7667 221.709 36.0131C221.031 36.2594 220.262 36.3826 219.4 36.3826C219.153 36.3826 218.907 36.3672 218.661 36.3364C218.445 36.3364 218.26 36.321 218.106 36.2902C217.891 36.2594 217.706 36.2132 217.552 36.1516V31.764C218.722 31.764 219.615 31.5022 220.231 30.9788C220.877 30.4554 221.37 29.7934 221.709 28.9928L222.171 27.8382L214.088 7.51633Z" fill="#2E3851"/>
</svg>
