<svg width="212" height="33" viewBox="0 0 212 33" fill="none" xmlns="http://www.w3.org/2000/svg">
<path d="M74.8593 17.3585C73.3395 19.8239 71.1781 21.2423 68.375 21.2423C64.3223 21.2423 61.3503 17.9664 61.3503 13.7448C61.3503 9.52325 64.1872 6.28109 68.4425 6.28109C71.1443 6.28109 73.5759 7.80085 74.7918 10.0974L78.7094 6.99031C76.7168 3.4442 73.1031 1.31653 68.5101 1.31653C61.1477 1.31653 55.9805 6.78767 55.9805 13.7448C55.9805 20.7019 61.249 26.2069 68.4425 26.2069C72.968 26.2069 76.7506 23.809 78.8107 20.398L74.8593 17.3585Z" fill="#2E3851"/>
<path d="M89.5387 8.07103C84.1351 8.07103 80.2513 11.9886 80.2513 17.1221C80.2513 22.2217 84.1351 26.2069 89.5387 26.2069C94.9423 26.2069 98.8262 22.2217 98.8262 17.1221C98.8262 11.9886 94.9423 8.07103 89.5387 8.07103ZM89.5387 12.6303C91.869 12.6303 93.6252 14.4203 93.6252 17.1221C93.6252 19.8239 91.869 21.6476 89.5387 21.6476C87.2084 21.6476 85.4523 19.8239 85.4523 17.1221C85.4523 14.4203 87.2084 12.6303 89.5387 12.6303Z" fill="#2E3851"/>
<path d="M102.182 8.4763V25.8016H107.315V16.7843C107.315 14.5216 108.497 12.5965 110.658 12.5965C112.55 12.5965 113.765 13.7786 113.765 16.0413V25.8016H118.899V16.7843C118.899 14.5216 120.081 12.5965 122.242 12.5965C124.134 12.5965 125.316 13.7786 125.316 16.0413V25.8016H130.449V15.2646C130.449 10.7728 127.916 8.07103 123.762 8.07103C120.824 8.07103 119.169 9.35438 117.919 11.1106C116.737 9.18552 114.846 8.07103 112.178 8.07103C109.915 8.07103 108.227 8.94911 107.112 10.7053V8.4763H102.182Z" fill="#2E3851"/>
<path d="M143.917 12.5965C146.113 12.5965 147.936 14.3865 147.936 17.1896C147.936 19.8914 146.113 21.6813 143.917 21.6813C141.621 21.6813 139.831 19.9252 139.831 17.1896C139.831 14.3527 141.621 12.5965 143.917 12.5965ZM139.595 8.4763H134.833V32.5561H139.966V23.9103C141.047 25.5314 143.107 26.2069 144.964 26.2069C149.693 26.2069 153.104 22.2893 153.104 17.1221C153.104 11.786 149.422 8.07103 144.998 8.07103C143.31 8.07103 140.945 8.78025 139.595 10.8741V8.4763Z" fill="#2E3851"/>
<path d="M165.452 15.0282L160.723 15.94C157.076 16.7168 155.083 18.473 155.083 21.0397C155.083 24.0454 157.448 26.2069 160.825 26.2069C163.121 26.2069 164.81 25.1937 165.621 23.6739V25.8016H170.382V14.8931C170.382 10.6715 167.512 8.07103 162.682 8.07103C159.44 8.07103 156.84 9.42193 155.252 11.347L157.92 14.5891C158.967 13.4071 160.453 12.4952 162.378 12.4952C164.135 12.4952 165.452 13.1707 165.452 14.8931V15.0282ZM161.973 22.3906C160.757 22.3906 159.981 21.7151 159.981 20.7357C159.981 19.7901 160.656 19.1822 162.041 18.9458L165.485 18.2703V18.7769C165.485 20.837 164.101 22.3906 161.973 22.3906Z" fill="#2E3851"/>
<path d="M174.707 8.4763V25.8016H179.84V16.7843C179.84 14.5216 181.022 12.5965 183.251 12.5965C185.142 12.5965 186.358 13.7786 186.358 16.0413V25.8016H191.492V15.2646C191.492 10.7728 188.925 8.07103 184.771 8.07103C182.441 8.07103 180.752 8.94911 179.637 10.7053V8.4763H174.707Z" fill="#2E3851"/>
<path d="M199.873 25.1599L199.671 25.734C198.928 28.1994 197.678 28.6385 196.327 28.6385C195.753 28.6385 194.875 28.5709 193.963 28.0643V32.3197C194.74 32.6912 195.855 32.9614 197.07 32.9614C200.346 32.9614 202.44 31.4078 204.163 27.22L211.728 8.4763H206.493L202.44 19.8239L198.421 8.4763H193.051L199.873 25.1599Z" fill="#2E3851"/>
<path d="M22.9544 0.0878906H17.5264C16.9741 0.0878906 16.5264 0.535607 16.5264 1.08789V29.8218C16.5264 30.3741 16.9741 30.8218 17.5264 30.8218H22.9544C23.5067 30.8218 23.9544 30.3741 23.9544 29.8218V1.08789C23.9544 0.535606 23.5067 0.0878906 22.9544 0.0878906Z" fill="#1154FF"/>
<path d="M33.9205 30.8218C37.4077 30.8218 40.2346 27.9949 40.2346 24.5078C40.2346 21.0206 37.4077 18.1937 33.9205 18.1937C30.4333 18.1937 27.6064 21.0206 27.6064 24.5078C27.6064 27.9949 30.4333 30.8218 33.9205 30.8218Z" fill="#1154FF"/>
<path d="M33.9205 12.716C37.4077 12.716 40.2346 9.8891 40.2346 6.40195C40.2346 2.91479 37.4077 0.0878906 33.9205 0.0878906C30.4333 0.0878906 27.6064 2.91479 27.6064 6.40195C27.6064 9.8891 30.4333 12.716 33.9205 12.716Z" fill="#042EC3"/>
<path d="M6.56015 30.8218C10.0473 30.8218 12.8742 27.9949 12.8742 24.5078C12.8742 21.0206 10.0473 18.1937 6.56015 18.1937C3.07299 18.1937 0.246094 21.0206 0.246094 24.5078C0.246094 27.9949 3.07299 30.8218 6.56015 30.8218Z" fill="#042EC3"/>
</svg>
