<svg width="371" height="371" viewBox="0 0 371 371" fill="none" xmlns="http://www.w3.org/2000/svg">
<g clip-path="url(#clip0)">
<path d="M370.5 0H0.5V370H370.5V0Z" fill="#3D3D41"/>
<path d="M358.489 11.6082H11.9927V358.104H358.489V11.6082Z" fill="#0A0A0B"/>
<path d="M185.241 352.797C277.992 352.797 353.182 277.607 353.182 184.856C353.182 92.1048 277.992 16.915 185.241 16.915C92.4897 16.915 17.3 92.1048 17.3 184.856C17.3 277.607 92.4897 352.797 185.241 352.797Z" stroke="#1E1E20" stroke-width="1.51639"/>
<path d="M185.35 338.609C270.205 338.609 338.994 269.82 338.994 184.965C338.994 100.11 270.205 31.321 185.35 31.321C100.495 31.321 31.706 100.11 31.706 184.965C31.706 269.82 100.495 338.609 185.35 338.609Z" stroke="#1E1E20" stroke-width="1.51639"/>
<path d="M185.459 324.423C262.419 324.423 324.807 262.035 324.807 185.075C324.807 108.115 262.419 45.727 185.459 45.727C108.499 45.727 46.111 108.115 46.111 185.075C46.111 262.035 108.499 324.423 185.459 324.423Z" stroke="#1E1E20" stroke-width="1.51639"/>
<path d="M185.569 310.235C254.633 310.235 310.62 254.248 310.62 185.184C310.62 116.12 254.633 60.133 185.569 60.133C116.505 60.133 60.518 116.12 60.518 185.184C60.518 254.248 116.505 310.235 185.569 310.235Z" stroke="#1E1E20" stroke-width="1.51639"/>
<path d="M185.462 291.066C243.998 291.066 291.451 243.613 291.451 185.077C291.451 126.541 243.998 79.088 185.462 79.088C126.926 79.088 79.473 126.541 79.473 185.077C79.473 243.613 126.926 291.066 185.462 291.066Z" stroke="#1E1E20" stroke-width="1.51639"/>
<path d="M185.354 271.896C233.362 271.896 272.281 232.977 272.281 184.969C272.281 136.961 233.362 98.042 185.354 98.042C137.346 98.042 98.427 136.961 98.427 184.969C98.427 232.977 137.346 271.896 185.354 271.896Z" stroke="#1E1E20" stroke-width="1.51639"/>
<path d="M185.355 256.733C224.989 256.733 257.118 224.604 257.118 184.97C257.118 145.336 224.989 113.207 185.355 113.207C145.721 113.207 113.592 145.336 113.592 184.97C113.592 224.604 145.721 256.733 185.355 256.733Z" stroke="#1E1E20" stroke-width="1.51639"/>
<path d="M185.355 241.569C216.614 241.569 241.954 216.229 241.954 184.97C241.954 153.711 216.614 128.371 185.355 128.371C154.096 128.371 128.756 153.711 128.756 184.97C128.756 216.229 154.096 241.569 185.355 241.569Z" stroke="#1E1E20" stroke-width="1.51639"/>
<path d="M1 0H371V370.084H1V0Z" fill="#0A0A0B"/>
<path fill-rule="evenodd" clip-rule="evenodd" d="M336.721 56.1337C442.127 57.619 528.614 130.742 563.766 230.115C602.343 339.168 599.145 468.32 507.502 538.914C408.907 614.863 269.19 608.506 169.817 533.578C75.5076 462.468 50.1121 334.918 89.087 223.426C125.428 119.47 226.596 54.5818 336.721 56.1337Z" fill="#002689"/>
<path fill-rule="evenodd" clip-rule="evenodd" d="M361.945 109.952C460.784 108.988 557.244 159.165 588.966 252.78C621.831 349.766 582.071 455.302 499.488 515.854C415.734 577.265 301.44 586.507 217.82 524.915C135.702 464.431 114.694 353.422 148.156 257.079C179.536 166.733 266.309 110.885 361.945 109.952Z" fill="#0030AC"/>
<path fill-rule="evenodd" clip-rule="evenodd" d="M392.083 173.664C472.826 175.222 537.712 236.404 560.427 313.834C581.175 384.56 547.925 457.412 487.884 500.227C429.506 541.856 352.677 544.522 293.309 504.316C226.976 459.392 179.541 383.647 202.459 306.926C226.894 225.13 306.662 172.016 392.083 173.664Z" fill="#0040E6"/>
<path fill-rule="evenodd" clip-rule="evenodd" d="M375.833 260.063C416.397 260.293 454.129 282.857 467.405 321.262C481.495 362.022 470.392 408.101 435.957 433.989C399.882 461.11 349.985 463.6 313.608 436.886C277.664 410.49 266.197 362.317 281.016 320.206C294.768 281.127 334.478 259.829 375.833 260.063Z" fill="#1154FF"/>
<path fill-rule="evenodd" clip-rule="evenodd" d="M336.881 301.762C339.363 301.762 341.618 302.846 343.253 304.601C344.225 305.643 344.977 306.915 345.428 308.337H335.718V311.557H345.904V313.973H335.718V317.193H345.904V319.742C345.904 322.399 344.892 324.814 343.253 326.564C341.618 328.314 339.363 329.403 336.881 329.403C334.4 329.403 332.144 328.319 330.51 326.564C328.876 324.814 327.858 322.399 327.858 319.742V317.193H332.645V313.973H327.858V311.557H332.645V308.337H328.334C328.785 306.915 329.537 305.643 330.51 304.601C332.144 302.846 334.4 301.762 336.881 301.762ZM349.037 319.742C349.037 323.338 347.679 326.591 345.478 328.947C343.278 331.303 340.24 332.758 336.881 332.758C333.523 332.758 330.485 331.303 328.284 328.947C326.083 326.591 324.725 323.338 324.725 319.742V312.497H321.717V319.742C321.717 324.224 323.417 328.287 326.159 331.223C328.57 333.805 331.788 335.522 335.377 335.898V338.726H332.936V341.947H340.826V338.726H338.385V335.898C341.974 335.522 345.193 333.805 347.604 331.223C350.346 328.287 352.045 324.224 352.045 319.742V312.497H349.037V319.742Z" fill="white"/>
<path d="M75.9478 137.754L65.6453 116.595C72.1438 113.623 75.1553 107.322 75.1553 99.5558C75.1553 89.9666 70.638 82.5964 60.4148 81.0114C58.9091 80.7737 56.7694 80.6944 55.6599 80.6944H31.568V137.754H42.3459V118.417H54.3522L63.7433 137.754H75.9478ZM42.3459 90.7591H55.1844C56.2939 90.7591 57.7203 90.8384 58.8298 91.1554C63.1886 92.3441 64.2981 96.4651 64.2981 99.5558C64.2981 102.647 63.1886 106.768 58.8298 107.956C57.7203 108.273 56.2939 108.353 55.1844 108.353H42.3459V90.7591ZM115.646 101.537C112.634 95.8311 106.453 93.7706 98.924 93.7706C88.6215 93.7706 82.757 98.6841 80.6173 105.737L90.365 108.828C91.7122 104.945 95.754 103.598 98.924 103.598C103.996 103.598 106.334 105.42 106.77 109.422C98.7258 110.611 92.584 111.523 88.463 113.028C81.5683 115.564 79.1116 120.002 79.1116 125.946C79.1116 133.078 84.1835 138.943 93.3765 138.943C99.9542 138.943 104.154 137.041 107.958 132.524V137.754H117.389V111.602C117.389 107.719 117.31 104.707 115.646 101.537ZM105.581 124.757C104.709 126.58 101.618 130.463 95.6747 130.463C91.95 130.463 89.6517 128.72 89.6517 125.787C89.6517 123.648 90.9197 122.142 94.0897 120.874C96.5465 119.963 99.4787 119.368 106.69 118.14C106.651 120.2 106.492 122.895 105.581 124.757ZM152.101 80.6944V96.3859C149.446 94.7216 146.197 93.7706 142.433 93.7706C130.149 93.7706 122.145 103.281 122.145 116.357C122.145 129.195 130.07 138.943 141.878 138.943C146.593 138.943 150.437 137.596 153.448 135.297V137.754H162.958V80.6944H152.101ZM143.621 129.354C136.647 129.354 133.557 123.568 133.557 116.357C133.557 109.224 136.806 103.36 144.018 103.36C150.754 103.36 153.448 108.59 153.448 116.357C153.448 124.123 150.833 129.354 143.621 129.354ZM171.676 89.0156H182.454V79.5057H171.676V89.0156ZM171.676 137.754H182.454V94.9594H171.676V137.754ZM210.421 138.943C223.259 138.943 232.135 129.671 232.135 116.357C232.135 103.122 223.338 93.7706 210.421 93.7706C197.741 93.7706 188.786 102.964 188.786 116.357C188.786 129.591 197.503 138.943 210.421 138.943ZM210.421 128.878C203.684 128.878 200.198 124.044 200.198 116.357C200.198 108.907 203.367 103.835 210.421 103.835C217.236 103.835 220.723 108.749 220.723 116.357C220.723 123.727 217.315 128.878 210.421 128.878ZM31.568 213.754H42.3459V194.417H55.6599C56.6901 194.417 58.9091 194.338 60.4148 194.1C70.5588 192.515 75.1553 185.145 75.1553 175.556C75.1553 165.967 70.638 158.596 60.4148 157.011C58.9091 156.774 56.7694 156.694 55.6599 156.694H31.568V213.754ZM42.3459 184.353V166.759H55.1844C56.2939 166.759 57.7203 166.838 58.8298 167.155C63.1886 168.344 64.2981 172.465 64.2981 175.556C64.2981 178.647 63.1886 182.768 58.8298 183.956C57.7203 184.273 56.2939 184.353 55.1844 184.353H42.3459ZM98.4249 214.943C111.263 214.943 120.139 205.671 120.139 192.357C120.139 179.122 111.343 169.771 98.4249 169.771C85.745 169.771 76.7898 178.964 76.7898 192.357C76.7898 205.591 85.5072 214.943 98.4249 214.943ZM98.4249 204.878C91.6887 204.878 88.2017 200.044 88.2017 192.357C88.2017 184.907 91.3717 179.835 98.4249 179.835C105.24 179.835 108.727 184.749 108.727 192.357C108.727 199.727 105.32 204.878 98.4249 204.878ZM153.262 156.694V172.386C150.607 170.722 147.358 169.771 143.593 169.771C131.31 169.771 123.306 179.281 123.306 192.357C123.306 205.195 131.231 214.943 143.039 214.943C147.754 214.943 151.598 213.596 154.609 211.297V213.754H164.119V156.694H153.262ZM144.782 205.354C137.808 205.354 134.718 199.568 134.718 192.357C134.718 185.224 137.967 179.36 145.178 179.36C151.915 179.36 154.609 184.59 154.609 192.357C154.609 200.123 151.994 205.354 144.782 205.354ZM190.906 214.943C200.812 214.943 207.865 209.871 210.322 200.757L199.306 198.459C198.038 202.58 195.74 204.878 190.906 204.878C184.407 204.878 181.079 199.806 181.079 192.357C181.079 185.224 184.09 179.835 190.906 179.835C194.868 179.835 198.276 182.451 199.544 186.889L210.322 184.036C208.42 175.239 201.129 169.771 191.064 169.771C177.988 169.771 169.667 179.36 169.667 192.357C169.667 205.195 177.592 214.943 190.906 214.943ZM248.46 177.537C245.448 171.831 239.267 169.771 231.738 169.771C221.436 169.771 215.571 174.684 213.432 181.737L223.179 184.828C224.527 180.945 228.568 179.598 231.738 179.598C236.81 179.598 239.148 181.42 239.584 185.422C231.54 186.611 225.398 187.523 221.277 189.028C214.383 191.564 211.926 196.002 211.926 201.946C211.926 209.078 216.998 214.943 226.191 214.943C232.768 214.943 236.969 213.041 240.773 208.524V213.754H250.203V187.602C250.203 183.719 250.124 180.707 248.46 177.537ZM238.395 200.757C237.523 202.58 234.433 206.463 228.489 206.463C224.764 206.463 222.466 204.72 222.466 201.787C222.466 199.648 223.734 198.142 226.904 196.874C229.361 195.963 232.293 195.368 239.505 194.14C239.465 196.2 239.307 198.895 238.395 200.757ZM274.058 214.943C285.232 214.943 291.969 209.633 291.969 200.836C291.969 194.179 288.244 190.693 278.496 188.157C268.511 185.621 267.084 184.907 267.084 182.688C267.084 180.232 269.699 178.805 273.662 179.043C277.704 179.36 280.16 181.262 280.557 184.432L291.572 182.451C290.463 174.684 283.489 169.771 273.424 169.771C263.042 169.771 256.385 175.001 256.385 183.243C256.385 189.821 260.189 193.149 270.65 195.844C279.923 198.3 280.953 198.855 280.953 201.391C280.953 204.086 278.734 205.671 274.851 205.671C270.096 205.671 266.846 203.293 265.975 199.251L254.959 200.916C256.385 209.871 263.28 214.943 274.058 214.943ZM310.82 179.281H323.183V170.959H310.82V159.072H300.042V170.959H292.751V179.281H300.042V195.606C300.042 200.757 299.646 204.561 301.786 208.444C305.273 214.705 314.307 215.418 323.183 213.754V204.799C318.111 205.512 313.594 205.671 311.692 202.659C310.662 201.074 310.82 198.3 310.82 194.972V179.281Z" fill="white"/>
<path d="M285.96 110.171H244.75V114.926H285.96V110.171Z" fill="white"/>
<path d="M36.522 330.377H39.6716L42.9504 318.954L46.2292 330.377H49.3788L54.3382 313.454H50.9771L47.804 325.089L44.631 313.454L41.2699 313.478L38.0968 325.089L34.9238 313.454H31.5627L36.522 330.377ZM57.8698 330.377H61.0664V313.454H57.8698V330.377ZM69.925 330.377H73.1216V316.439H78.457V313.454H64.5896V316.439H69.925V330.377ZM81.7559 330.377H84.9524V323.396H92.5207V330.377H95.7173V313.454H92.5207V320.411H84.9524V313.454H81.7559V330.377ZM110.092 330.73C111.949 330.73 113.547 330.024 114.51 328.356C115.169 327.227 115.075 326.358 115.075 324.736V313.454H111.831V324.736C111.831 325.606 111.831 326.264 111.643 326.71C111.337 327.439 110.538 327.744 109.951 327.744C109.081 327.744 108.188 327.016 108.047 326.146L104.897 326.898C105.626 329.249 107.389 330.73 110.092 330.73ZM127.266 330.73C132.343 330.73 135.469 327.18 135.469 321.915C135.469 316.651 132.343 313.101 127.266 313.101C122.189 313.101 119.063 316.651 119.063 321.915C119.063 327.18 122.189 330.73 127.266 330.73ZM127.266 327.721C124.046 327.674 122.448 325.441 122.448 321.915C122.448 318.39 124.046 316.063 127.266 316.11C130.486 316.157 132.084 318.39 132.084 321.915C132.084 325.441 130.486 327.768 127.266 327.721ZM139.225 330.377H142.422V323.396H149.99V330.377H153.187V313.454H149.99V320.411H142.422V313.454H139.225V330.377ZM157.896 330.377H161.14V319.095L168.497 330.377H171.74V313.454H168.497V324.736L161.14 313.454H157.896V330.377ZM189.808 330.73C193.686 330.73 196.413 328.661 197.494 325.371L194.274 324.477C193.639 326.522 192.158 327.721 189.808 327.721C186.588 327.721 184.966 325.441 184.966 321.915C184.966 318.39 186.588 316.11 189.808 316.11C192.158 316.11 193.639 317.309 194.274 319.354L197.494 318.46C196.413 315.17 193.686 313.101 189.808 313.101C184.731 313.101 181.605 316.651 181.605 321.915C181.605 327.18 184.731 330.73 189.808 330.73ZM211.68 330.377H214.971L209.8 313.454H205.028L199.858 330.377H203.148L204.218 326.851H210.587L211.68 330.377ZM205.122 323.866L207.379 316.451L209.67 323.866H205.122ZM231.65 330.377L228.594 324.101C230.521 323.22 231.415 321.351 231.415 319.048C231.415 316.204 230.075 314.018 227.043 313.548C226.596 313.478 225.962 313.454 225.633 313.454H218.487V330.377H221.684V324.642H225.245L228.03 330.377H231.65ZM221.684 316.439H225.492C225.821 316.439 226.244 316.463 226.573 316.557C227.865 316.909 228.194 318.131 228.194 319.048C228.194 319.965 227.865 321.187 226.573 321.539C226.244 321.633 225.821 321.657 225.492 321.657H221.684V316.439ZM239.569 330.377H242.765V316.439H248.101V313.454H234.233V316.439H239.569V330.377ZM251.399 330.377H262.446V327.392H254.596V323.044H261.036V320.059H254.596V316.439H262.446V313.454H251.399V330.377ZM279.836 330.377L276.78 324.101C278.708 323.22 279.601 321.351 279.601 319.048C279.601 316.204 278.261 314.018 275.229 313.548C274.782 313.478 274.148 313.454 273.819 313.454H266.673V330.377H269.87V324.642H273.431L276.216 330.377H279.836ZM269.87 316.439H273.678C274.007 316.439 274.43 316.463 274.759 316.557C276.052 316.909 276.381 318.131 276.381 319.048C276.381 319.965 276.052 321.187 274.759 321.539C274.43 321.633 274.007 321.657 273.678 321.657H269.87V316.439Z" fill="white"/>
</g>
<defs>
<clipPath id="clip0">
<rect width="371" height="371" fill="white"/>
</clipPath>
</defs>
</svg>
