<svg width="183" height="37" viewBox="0 0 183 37" fill="none" xmlns="http://www.w3.org/2000/svg">
<circle cx="18.4694" cy="18.4694" r="18.4694" fill="#14142B"/>
<rect x="7.60107" y="14.5415" width="2.69219" height="7.95253" rx="1.34609" fill="white"/>
<rect x="12.3622" y="10.4342" width="2.69219" height="15.9734" rx="1.34609" fill="white"/>
<rect x="17.1232" y="7.42744" width="2.69219" height="21.987" rx="1.34609" fill="white"/>
<rect width="2.69219" height="7.95253" rx="1.34609" transform="matrix(-1 0 0 1 29.3376 14.6384)" fill="white"/>
<rect width="2.69219" height="15.9734" rx="1.34609" transform="matrix(-1 0 0 1 24.5765 10.5311)" fill="white"/>
<rect width="2.69219" height="21.987" rx="1.34609" transform="matrix(-1 0 0 1 19.8154 7.52433)" fill="white"/>
<path d="M47.1708 9.08469V29.7704H60.4688V26.638H50.5987V9.08469H47.1708Z" fill="#14142B"/>
<path d="M61.5215 10.8578C61.5215 12.2171 62.6149 13.2218 63.9743 13.2218C65.3336 13.2218 66.3975 12.2171 66.3975 10.8578C66.3975 9.46886 65.3336 8.49367 63.9743 8.49367C62.6149 8.49367 61.5215 9.46886 61.5215 10.8578ZM65.5996 15.2018H62.349V29.7704H65.5996V15.2018Z" fill="#14142B"/>
<path d="M67.3343 15.2018L72.5648 29.7704H77.293L82.5235 15.2018H79.007L75.1062 26.8153H74.7516L70.8509 15.2018H67.3343Z" fill="#14142B"/>
<path d="M83.0478 22.3531C83.0478 26.8153 86.1803 30.1841 90.6129 30.1841C94.3068 30.1841 96.0798 28.1747 97.1437 26.5198L94.4545 24.9831C93.8044 26.2538 92.6519 27.3768 90.5538 27.3768C88.1897 27.3768 86.5644 25.8106 86.4167 23.5351H97.4392V22.1167C97.4392 17.8022 94.6023 14.7585 90.3469 14.7585C86.0916 14.7585 83.0478 18.0091 83.0478 22.3531ZM86.4167 21.112C86.6826 18.9252 88.0124 17.5658 90.3174 17.5658C92.5633 17.5658 93.9522 18.9252 94.0999 21.112H86.4167Z" fill="#14142B"/>
<path d="M98.7468 22.4713C98.7468 26.9631 102.027 30.1841 106.341 30.1841C110.538 30.1841 112.872 27.6132 113.552 24.5694L110.36 23.8307C109.976 25.7219 108.883 27.2586 106.371 27.2586C103.77 27.2586 101.997 25.3378 101.997 22.4713C101.997 19.6049 103.83 17.7136 106.341 17.7136C108.765 17.7136 110.094 19.2502 110.331 21.1415L113.522 20.4027C112.843 17.1226 110.301 14.788 106.312 14.788C102.027 14.788 98.7468 17.9795 98.7468 22.4713Z" fill="#14142B"/>
<path d="M115.235 18.7774L117.954 20.3141C118.752 18.6888 120.052 17.6249 122.209 17.6249C124.396 17.6249 125.608 18.7479 125.608 20.4323V20.8164L120.141 21.3779C116.861 21.703 114.94 23.2101 114.94 25.6924C114.94 28.4111 117.097 30.1841 120.377 30.1841C123.421 30.1841 124.692 28.7361 125.224 27.5836H125.637V29.7704H128.829V20.5209C128.829 17.0635 126.287 14.788 122.328 14.788C118.781 14.788 116.624 16.5611 115.235 18.7774ZM118.309 25.5446C118.309 24.3626 119.313 23.8602 120.85 23.7124L125.608 23.2101V23.4465C125.608 25.6924 124.071 27.495 121.057 27.495C119.284 27.495 118.309 26.7267 118.309 25.5446Z" fill="#14142B"/>
<path d="M131.542 19.1911C131.542 21.9394 133.552 23.1214 137.246 23.5942L138.103 23.7124C139.669 23.9193 141.353 24.0966 141.353 25.3969C141.353 26.6676 139.935 27.4654 138.132 27.4654C136.005 27.4654 134.084 26.2834 133.168 24.2444L130.449 25.8401C131.69 27.9382 133.966 30.1841 138.044 30.1841C141.856 30.1841 144.545 28.1747 144.545 25.3082C144.545 22.4418 142.388 21.437 138.398 20.9347L137.541 20.8164C135.975 20.6096 134.734 20.4027 134.734 19.1616C134.734 18.0978 135.709 17.4476 137.216 17.4476C139.048 17.4476 140.674 18.4228 142.033 20.1368L144.397 18.3342C142.269 16.0292 140.23 14.788 137.246 14.788C134.084 14.788 131.542 16.4724 131.542 19.1911Z" fill="#14142B"/>
<path d="M145.164 15.2018V18.0091H149.035V27.1108C149.035 28.677 150.158 29.7704 151.695 29.7704H155.596V26.9631H153.084C152.552 26.9631 152.286 26.6971 152.286 26.1061V18.0091H156.423V15.2018H152.286V10.4145H149.035V15.2018H145.164Z" fill="#14142B"/>
<path d="M165.314 9.08469L171.284 19.132V19.5162L165.226 29.7704H169.126L173.766 21.7916H174.15L178.789 29.7704H182.661L176.632 19.5162V19.132L182.572 9.08469H178.701L174.15 16.8566H173.766L169.185 9.08469H165.314Z" fill="#14142B"/>
</svg>
